<?xml version="1.0" standalone="no"?>
<!DOCTYPE svg PUBLIC "-//W3C//DTD SVG 20010904//EN"
 "http://www.w3.org/TR/2001/REC-SVG-20010904/DTD/svg10.dtd">
<svg version="1.0" xmlns="http://www.w3.org/2000/svg"
 width="32.000000pt" height="32.000000pt" viewBox="0 0 32.000000 32.000000"
 preserveAspectRatio="xMidYMid meet">

<g transform="translate(0.000000,345.000000) scale(0.100000,-0.100000)"
fill="#000000" stroke="none">
<path d="M0 1726 l0 -1725 1180 0 1180 -1 -2 1722 -3 1723 -1177 2 -1178 3 0
-1724z m2318 1680 c4 -4 7 -764 7 -1689 l0 -1682 -1142 1 c-629 0 -1146 4
-1150 8 -7 7 -12 2763 -5 3178 l3 188 167 3 c327 6 2113 0 2120 -7z"/>
<path d="M47 3157 c-6 -434 -1 -3086 5 -3093 4 -3 511 -8 1127 -11 l1120 -6 3
199 c7 400 2 3134 -6 3141 -4 4 -511 8 -1126 10 l-1119 2 -4 -242z m154 197
c9 -8 18 -12 21 -9 9 9 157 11 151 2 -3 -5 1 -14 8 -19 10 -7 6 -8 -12 -4 -18
4 -29 1 -32 -8 -3 -8 -25 -16 -54 -18 -38 -3 -51 0 -61 14 -19 25 -35 11 -28
-23 6 -34 -21 -69 -54 -69 -23 0 -27 -28 -7 -49 10 -12 9 -13 -7 -7 -14 5 -17
2 -12 -10 3 -8 6 -24 6 -34 0 -26 34 -65 49 -56 9 6 8 11 -5 20 -20 15 -5 30
20 20 19 -7 21 -30 4 -40 -8 -5 7 -13 37 -21 l50 -12 -44 4 c-33 3 -51 -1 -69
-16 -14 -10 -30 -19 -36 -19 -6 0 -4 4 4 10 22 14 5 23 -20 10 -38 -20 -68 23
-34 51 13 11 14 9 9 -14 -6 -21 -3 -27 8 -27 9 0 19 5 23 11 10 17 -17 122
-36 137 -13 11 -13 11 1 6 25 -8 30 38 7 66 -25 30 -23 72 5 97 38 35 73 37
108 7z m516 -5 c-3 -12 0 -19 8 -19 8 0 15 10 17 22 4 28 28 36 28 9 0 -12 -5
-21 -12 -21 -8 0 -9 -3 -2 -10 14 -14 44 -2 44 16 0 19 19 18 25 -1 3 -8 8
-23 11 -32 4 -10 8 -43 10 -73 2 -53 2 -54 -7 -16 -12 52 -33 74 -82 87 -51
13 -78 6 -122 -32 -19 -17 -35 -26 -35 -19 0 9 -3 10 -14 1 -7 -6 -21 -9 -30
-5 -13 5 -16 -1 -16 -32 -1 -32 -3 -36 -11 -21 -6 9 -8 25 -5 35 4 12 -4 22
-25 34 -34 20 -30 41 7 32 17 -4 24 -2 24 9 0 8 9 25 19 38 18 22 20 22 26 6
9 -22 -15 -84 -25 -67 -5 8 -10 9 -14 2 -8 -14 3 -19 40 -17 37 2 102 49 115
83 10 27 33 19 26 -9z m291 19 c7 -7 12 -23 12 -37 1 -25 2 -24 15 7 14 32 38
42 50 21 4 -6 -1 -13 -11 -15 -12 -4 -40 -49 -77 -124 -53 -109 -87 -160 -87
-131 0 6 -21 -3 -47 -19 -48 -31 -125 -42 -138 -20 -4 6 6 10 22 10 33 0 155
73 130 78 -27 5 -20 22 12 28 37 8 97 57 117 96 10 18 11 27 4 23 -9 -6 -10 1
-6 23 9 37 -17 70 -40 51 -8 -6 -14 -17 -14 -25 0 -19 21 -29 31 -13 4 7 11
10 14 7 12 -12 -6 -28 -32 -28 -21 0 -24 -2 -13 -15 9 -10 9 -15 1 -15 -6 0
-11 5 -11 11 0 6 -7 9 -15 5 -24 -9 -45 4 -45 28 1 19 2 19 11 4 15 -26 39
-22 39 6 0 45 50 72 78 44z m239 -42 c40 -37 70 -77 96 -129 81 -159 204 -225
316 -167 40 20 91 73 91 93 0 7 7 25 16 42 10 19 11 31 5 33 -6 2 -11 10 -11
17 0 8 -17 32 -38 55 -35 36 -44 40 -88 40 -27 0 -56 -5 -64 -10 -10 -6 4 -7
40 -4 66 6 111 -17 128 -65 14 -39 1 -41 -16 -2 -17 38 -66 61 -128 58 -58 -2
-73 -17 -74 -71 0 -31 -3 -37 -12 -28 -9 9 -9 22 -2 52 7 26 8 40 1 43 -6 2
-6 10 1 22 6 11 13 28 16 38 7 21 22 22 30 1 4 -10 -1 -22 -11 -30 -15 -11
-13 -12 14 -2 23 9 31 17 30 34 -1 13 3 23 8 23 6 0 10 -8 9 -17 0 -10 7 -19
17 -19 12 -1 15 4 12 18 -4 13 0 19 12 19 13 0 16 -6 12 -21 -3 -12 -3 -18 0
-15 4 3 25 -9 47 -27 26 -20 49 -31 64 -29 23 4 29 16 12 27 -5 3 -10 17 -10
30 0 20 5 24 24 23 12 -1 23 -7 23 -13 -1 -46 3 -55 21 -47 9 5 23 7 30 5 10
-4 9 -9 -4 -24 -9 -10 -22 -19 -29 -19 -7 0 -9 -13 -7 -34 2 -18 -1 -37 -7
-40 -7 -5 -11 5 -11 27 0 31 -3 35 -29 39 l-29 4 39 -56 c56 -82 69 -92 106
-79 24 8 30 15 26 30 -3 10 2 31 12 45 14 21 15 31 6 51 -6 13 -11 38 -11 54
l0 31 29 -24 c30 -23 42 -46 19 -32 -10 6 -10 4 0 -7 6 -7 12 -24 12 -37 0
-22 -2 -23 -17 -11 -16 13 -17 12 -5 -3 12 -15 11 -21 -7 -44 -27 -34 -26 -40
4 -48 14 -4 25 -11 25 -16 0 -6 8 -10 18 -10 33 0 54 -35 56 -91 1 -45 -2 -54
-25 -71 -37 -28 -111 -35 -143 -14 -33 21 -42 20 -25 -1 13 -16 12 -17 -4 -4
-9 8 -15 16 -12 19 8 8 -16 32 -32 32 -8 0 -21 7 -29 15 -9 8 -24 15 -35 15
-10 0 -19 4 -19 10 0 5 6 7 14 4 24 -9 28 14 5 29 -19 14 -25 12 -71 -16 -44
-27 -60 -32 -113 -31 -71 0 -136 32 -178 85 l-23 30 -13 -41 c-23 -77 -108
-102 -157 -46 -12 14 -25 22 -28 19 -3 -4 -6 29 -6 73 0 52 -5 86 -14 99 -12
18 -12 23 4 42 l18 22 18 -20 c15 -17 16 -24 6 -39 -7 -11 -12 -52 -12 -92 0
-68 1 -71 16 -50 18 26 46 29 64 7 29 -35 40 38 16 96 -15 36 -92 129 -106
129 -16 0 -84 -76 -101 -115 -20 -42 -25 -110 -10 -119 5 -3 11 1 15 9 7 18
47 20 64 3 28 -28 -7 -96 -48 -92 -8 1 -23 2 -33 3 -28 2 -77 56 -77 85 0 33
-6 33 -37 -4 -80 -96 -226 -111 -315 -33 -19 17 -58 2 -58 -22 0 -18 11 -19
30 -2 12 10 12 9 1 -5 -15 -19 -41 -24 -41 -8 0 6 -5 10 -10 10 -6 0 -10 -8
-8 -17 2 -12 -9 -23 -34 -35 -37 -18 -64 -43 -32 -31 12 4 15 3 10 -6 -5 -7
-14 -10 -21 -7 -8 3 -27 0 -44 -7 -36 -13 -92 2 -129 37 -20 18 -23 27 -17 66
7 48 39 92 60 84 7 -3 15 2 18 10 8 19 78 22 106 4 17 -10 23 -8 41 13 11 13
28 37 36 53 20 36 54 73 54 59 0 -21 -12 -43 -21 -37 -15 9 -11 -6 21 -72 40
-86 89 -119 174 -119 104 0 186 67 246 200 23 51 131 165 156 165 7 0 39 -24
71 -54z m155 42 c9 -7 18 -24 20 -38 4 -33 38 -40 39 -8 0 22 1 22 8 3 5 -11
4 -25 -1 -32 -13 -16 -44 -17 -53 -2 -4 6 -13 8 -21 5 -17 -6 -47 22 -38 36 4
7 10 4 16 -6 11 -20 28 -12 28 15 0 26 -49 27 -51 2 -4 -63 24 -88 99 -87 57
2 57 2 20 -10 -20 -6 -40 -15 -45 -20 -5 -5 -2 -6 5 -1 10 5 13 2 10 -11 -4
-25 -22 -21 -26 6 -2 11 -9 20 -17 20 -7 0 -25 14 -39 31 -31 36 -34 27 -7
-17 23 -38 76 -79 114 -88 30 -7 36 -23 10 -28 -24 -5 96 -78 129 -78 15 0 30
-4 33 -10 4 -6 -14 -10 -47 -10 -43 0 -64 6 -101 30 -26 16 -47 25 -47 19 0
-20 -27 9 -41 44 -7 18 -26 54 -43 81 -16 26 -35 65 -42 85 -7 20 -18 36 -25
36 -8 0 -15 8 -17 18 -2 10 3 17 11 17 17 0 33 -18 40 -45 4 -19 5 -18 6 2 1
24 26 53 45 53 7 0 19 -6 28 -12z m853 -23 c30 -29 33 -73 7 -101 -21 -23 -17
-64 6 -64 14 0 14 -1 0 -12 -17 -15 -44 -120 -34 -137 4 -6 14 -11 22 -11 17
0 19 36 2 44 -7 3 -4 5 7 3 14 -2 20 -10 20 -27 0 -23 -3 -25 -40 -23 l-39 3
24 -17 c14 -9 27 -18 29 -19 2 -2 -2 -10 -8 -18 -15 -18 -163 -16 -169 2 -2 7
6 12 18 12 12 0 30 5 41 10 13 8 19 7 19 0 0 -6 5 -8 10 -5 6 4 8 11 5 16 -4
5 -1 9 5 9 6 0 8 5 5 10 -3 6 -17 10 -31 10 -14 0 -23 -4 -19 -9 3 -5 1 -12
-5 -16 -5 -3 -10 0 -10 7 0 9 -3 9 -10 -2 -7 -11 -10 -11 -10 -2 0 7 -4 10
-10 7 -5 -3 -10 0 -10 8 0 20 69 28 96 12 13 -9 26 -10 35 -4 15 9 15 9 -19
13 -30 4 -46 21 -38 41 6 17 39 17 34 0 -2 -5 -7 -9 -11 -7 -5 1 -6 -2 -2 -8
11 -18 35 -11 44 13 21 56 22 77 4 77 -16 0 -16 1 1 13 23 17 11 47 -19 47
-30 0 -55 30 -52 65 2 27 -2 31 -41 43 -43 14 -103 8 -86 -8 13 -12 76 -16 93
-6 9 6 12 5 9 -5 -6 -16 -95 -14 -115 3 -7 5 -21 7 -33 3 -11 -4 -20 -2 -20 4
0 6 8 11 18 11 15 1 15 2 -3 17 -19 15 -19 15 5 9 41 -11 156 -9 176 3 32 18
73 13 99 -14z m-1845 -94 c-8 -16 -7 -28 5 -50 17 -35 20 -61 5 -61 -6 0 -14
8 -17 17 -4 9 -13 25 -22 35 -15 18 -24 61 -10 52 4 -2 11 1 15 7 4 8 3 9 -4
5 -16 -9 -15 7 0 22 7 7 8 12 3 12 -4 0 0 10 11 21 l19 21 3 -30 c2 -17 -2
-40 -8 -51z m40 57 c0 -12 10 -33 23 -46 l22 -25 -32 19 c-25 14 -33 25 -33
46 0 15 5 28 10 28 6 0 10 -10 10 -22z m1470 -7 c0 -19 -8 -34 -25 -45 -36
-24 -41 -19 -11 11 17 17 24 32 21 45 -4 10 -2 18 4 18 6 0 11 -13 11 -29z
m-1141 -10 c10 -6 1 -8 -26 -4 -53 7 -106 -18 -127 -60 -12 -24 -16 -27 -16
-12 0 23 26 57 55 73 24 14 95 15 114 3z m-454 -11 c3 -5 -1 -10 -9 -10 -9 0
-16 -7 -16 -15 0 -18 -16 -20 -26 -3 -4 6 1 17 11 25 22 16 32 16 40 3z m32
-18 c-23 -25 -21 -48 4 -84 12 -16 19 -31 16 -34 -6 -7 -42 44 -51 72 -6 21
30 81 42 70 3 -3 -2 -14 -11 -24z m643 7 c0 -5 -13 -15 -29 -20 -16 -6 -28
-17 -27 -26 1 -22 -20 -28 -28 -8 -3 9 -2 13 4 10 6 -3 10 -1 10 4 0 6 -10 11
-22 11 -13 0 -30 5 -38 10 -11 7 1 10 40 10 30 0 62 5 70 10 19 12 20 12 20
-1z m1078 -11 c2 -11 -3 -18 -12 -18 -9 0 -16 7 -16 15 0 8 -9 15 -20 15 -17
0 -18 -3 -8 -24 9 -21 6 -32 -17 -71 -15 -26 -29 -44 -32 -41 -3 3 4 20 16 39
23 38 27 72 10 83 -18 11 12 25 46 22 19 -2 31 -9 33 -20z m-1347 -11 c-1 -4
-1 -14 -1 -22 0 -8 -4 -15 -10 -15 -5 0 -10 12 -10 26 0 14 5 24 11 22 6 -2
10 -7 10 -11z m917 -9 c-4 -28 -24 -34 -31 -9 -6 22 0 31 20 31 9 0 13 -8 11
-22z m-959 -27 c-3 -8 -10 -8 -23 2 -12 8 -16 19 -11 26 6 10 11 10 22 -2 9
-8 14 -20 12 -26z m909 13 c1 -20 -2 -25 -14 -20 -9 3 -18 6 -20 6 -13 0 -1
29 14 33 9 3 17 5 17 6 0 0 2 -11 3 -25z m-1099 0 c7 5 23 -53 17 -61 -1 -1
-16 17 -35 39 -26 31 -29 38 -12 29 12 -7 25 -10 30 -7z m291 7 c0 -11 -29
-35 -35 -29 -10 9 7 38 21 38 8 0 14 -4 14 -9z m905 -12 c0 -7 -8 -15 -17 -17
-18 -3 -25 18 -11 32 10 10 28 1 28 -15z m181 -12 c-23 -23 -34 -47 -22 -47 2
0 21 15 42 34 53 47 56 37 5 -14 -47 -47 -69 -41 -63 15 3 26 8 32 22 28 10
-3 21 0 25 7 4 6 9 9 12 7 2 -3 -7 -16 -21 -30z m-1600 8 c4 -8 10 -12 15 -9
5 3 9 0 9 -6 0 -6 -6 -10 -12 -9 -7 1 -21 -1 -31 -6 -19 -8 -61 21 -51 36 9
15 64 10 70 -6z m189 -25 c21 -22 36 -42 34 -45 -3 -2 -25 16 -49 40 -24 25
-40 45 -34 45 5 0 27 -18 49 -40z m1675 30 c13 -8 12 -13 -7 -32 l-23 -22 -21
21 c-12 11 -18 26 -15 32 9 13 46 14 66 1z m-1000 -29 c15 -28 12 -33 -10 -19
-21 13 -27 38 -10 38 5 0 14 -9 20 -19z m94 -16 c-35 -27 -41 -16 -11 23 7 9
13 10 21 2 7 -7 4 -14 -10 -25z m832 9 c-3 -8 0 -11 8 -8 7 3 25 -7 40 -21
l28 -26 -23 -25 c-43 -46 -103 -18 -75 35 7 13 11 35 8 49 -4 18 -1 23 7 17 7
-4 10 -13 7 -21z m-1848 -3 c3 -8 0 -11 -5 -8 -5 3 -9 -3 -9 -15 1 -12 -5 -23
-11 -25 -9 -3 -13 7 -13 32 0 29 4 36 17 33 9 -2 18 -9 21 -17z m1957 -1 c3
-10 1 -29 -6 -41 -10 -20 -12 -20 -21 -6 -5 10 -6 22 -2 29 4 7 3 8 -4 4 -16
-9 -15 7 0 22 17 17 26 15 33 -8z m-1511 4 c20 -8 11 -24 -15 -24 -10 0 -19 7
-19 15 0 16 9 19 34 9z m71 -4 c11 -17 -5 -32 -21 -19 -7 6 -11 15 -8 20 7 12
21 11 29 -1z m75 -5 c0 -8 -9 -15 -19 -15 -24 0 -36 16 -19 23 24 10 38 7 38
-8z m770 5 c13 -9 13 -11 0 -20 -21 -14 -40 -12 -40 3 0 26 16 33 40 17z m66
-1 c10 -17 -13 -36 -27 -22 -12 12 -4 33 11 33 5 0 12 -5 16 -11z m74 -8 c0
-14 -5 -18 -20 -14 -21 5 -25 15 -13 26 13 14 33 6 33 -12z m-1423 -13 c27
-25 29 -41 7 -62 -22 -22 -38 -20 -71 9 l-28 25 28 25 c34 30 35 30 64 3z
m841 -28 c11 -18 12 -21 2 -12 -8 6 -24 12 -37 12 -23 0 -30 10 -16 24 12 12
35 2 51 -24z m132 16 c0 -7 -8 -16 -17 -19 -10 -2 -27 -8 -38 -12 -15 -5 -14
-1 8 19 31 29 47 33 47 12z m-580 -11 c0 -16 -27 -32 -37 -21 -7 7 16 36 28
36 5 0 9 -7 9 -15z m100 -14 c0 -4 -3 -11 -7 -14 -9 -9 -33 12 -33 30 0 11 4
11 20 3 11 -6 20 -14 20 -19z m910 5 c0 -20 -12 -27 -27 -15 -20 18 -16 38 7
32 11 -3 20 -11 20 -17z m-960 -28 c0 -4 -7 -8 -15 -8 -10 0 -15 10 -15 28 1
26 1 26 15 8 8 -11 15 -23 15 -28z m860 28 c0 -21 -20 -30 -33 -17 -9 9 -8 14
3 21 21 14 30 12 30 -4z m50 -21 c0 -8 -5 -17 -11 -21 -16 -9 -30 18 -17 33
12 15 28 8 28 -12z m-660 -87 c0 -5 -4 -8 -10 -8 -5 0 -10 10 -10 23 0 18 2
19 10 7 5 -8 10 -18 10 -22z m386 -5 c-11 -11 -17 4 -9 23 7 18 8 18 11 1 2
-10 1 -21 -2 -24z m-419 5 c-3 -8 -6 -5 -6 6 -1 11 2 17 5 13 3 -3 4 -12 1
-19z m447 7 c3 -8 1 -15 -4 -15 -6 0 -10 7 -10 15 0 8 2 15 4 15 2 0 6 -7 10
-15z m-1141 -12 c-7 -2 -21 -2 -30 0 -10 3 -4 5 12 5 17 0 24 -2 18 -5z m-78
-13 c3 -5 17 -10 30 -10 29 0 55 -9 55 -20 0 -4 -39 -7 -87 -7 -71 2 -88 5
-88 17 0 10 8 14 27 12 14 -1 29 2 33 8 8 13 22 13 30 0z m1585 -31 c0 -10
-1178 -4 -1189 6 -2 3 264 5 592 5 411 0 597 -3 597 -11z m-1156 -50 c38 -33
44 -44 35 -55 -9 -12 -8 -18 7 -29 18 -14 18 -14 -3 -15 -12 0 -31 12 -43 28
-12 15 -19 22 -16 15 10 -20 -14 -26 -28 -7 -15 20 -38 11 -29 -12 3 -8 18
-21 34 -29 25 -13 27 -19 22 -52 -3 -21 -18 -56 -32 -78 l-26 -40 5 -425 c4
-307 8 -426 16 -427 7 -1 15 17 18 41 9 56 38 135 70 191 54 91 63 62 11 -36
-43 -81 -65 -171 -65 -269 0 -93 19 -168 67 -265 20 -41 33 -78 30 -82 -18
-18 -92 132 -109 221 -7 37 -16 66 -19 66 -4 0 -5 9 -2 20 3 11 0 20 -6 20 -8
0 -12 -129 -14 -447 -1 -247 -3 -35 -5 470 -1 504 -4 917 -7 917 -3 0 -32 -13
-63 -30 -31 -16 -91 -38 -132 -48 -81 -20 -129 -42 -149 -66 -7 -9 -17 -14
-21 -11 -5 3 -12 0 -16 -6 -5 -8 -3 -9 6 -4 9 6 10 2 4 -16 -13 -38 -8 -78 12
-100 19 -21 18 -21 -11 -17 -19 2 -34 11 -41 26 -10 20 -12 21 -18 6 -17 -44
32 -163 85 -208 41 -35 90 -33 100 4 5 22 7 23 14 7 4 -11 3 -23 -4 -30 -30
-30 10 -37 66 -10 46 21 73 67 73 122 0 36 -6 49 -34 77 -29 29 -41 34 -79 34
-35 0 -50 -6 -71 -26 -50 -51 -20 -129 47 -122 27 2 33 8 35 31 3 21 -1 27
-15 27 -11 0 -24 -5 -30 -11 -15 -15 -33 -3 -33 21 0 28 28 50 65 50 78 0 107
-81 50 -140 -16 -16 -34 -30 -41 -30 -7 0 4 16 23 35 41 41 42 78 1 108 -23
17 -31 19 -53 9 -32 -15 -32 -31 0 -24 52 9 76 -52 33 -82 -30 -22 -60 -20
-91 4 -73 58 -18 168 85 171 l33 1 -30 13 c-20 10 -24 14 -12 15 25 0 59 -19
52 -29 -4 -8 24 -25 31 -19 1 2 -25 38 -58 81 -33 43 -57 81 -54 84 4 4 13 -2
20 -13 8 -10 23 -30 34 -44 l21 -25 -14 48 c-8 26 -10 47 -6 47 5 0 15 -24 24
-52 15 -52 15 -52 16 -17 1 20 8 42 16 49 18 15 51 5 58 -19 6 -26 -8 -45 -27
-38 -21 8 -20 24 2 30 16 4 16 4 -2 12 -43 19 -43 -33 0 -164 13 -40 24 -84
24 -98 0 -35 -24 -85 -55 -113 -23 -21 -36 -25 -91 -25 -55 0 -62 -2 -47 -13
12 -9 31 -11 53 -7 97 17 106 17 123 0 21 -20 21 -29 1 -49 -12 -12 -20 -13
-35 -5 -21 11 -21 30 -1 37 7 2 12 -4 12 -14 0 -14 3 -15 12 -6 9 10 9 16 -4
28 -14 14 -22 15 -49 5 -17 -6 -44 -11 -58 -11 l-26 -1 24 -20 c14 -11 33 -18
43 -16 13 4 18 0 16 -11 -2 -10 6 -18 21 -22 14 -3 26 -11 29 -18 2 -7 -2 -10
-12 -6 -13 5 -13 1 -3 -25 10 -27 9 -34 -10 -52 -14 -15 -27 -19 -42 -14 -25
8 -29 45 -5 45 11 0 14 -5 10 -16 -4 -11 -1 -14 12 -12 36 7 26 48 -24 94 -26
24 -49 42 -51 40 -7 -6 28 -76 37 -76 6 0 10 -5 10 -11 0 -6 -7 -9 -15 -5 -11
4 -15 -2 -15 -24 0 -17 -3 -29 -7 -28 -5 1 -23 -6 -41 -16 -27 -14 -46 -16
-94 -11 -49 6 -63 4 -79 -11 -10 -9 -19 -24 -19 -33 0 -12 3 -12 12 -3 16 16
28 15 28 -3 0 -21 -27 -30 -45 -15 -30 25 6 80 53 80 21 0 23 3 17 29 -4 17 0
44 9 66 23 54 20 83 -8 97 -14 6 -32 8 -40 5 -18 -7 -22 -47 -5 -47 5 0 8 4 4
9 -8 13 15 25 26 14 18 -18 -2 -44 -30 -41 -22 2 -26 8 -26 33 0 58 72 67 105
13 l18 -29 6 26 c4 14 4 30 1 35 -4 6 -2 10 2 10 5 0 13 -20 19 -45 10 -44 10
-45 -13 -41 -12 3 -25 0 -28 -5 -4 -5 5 -9 18 -9 33 0 61 -33 53 -63 -7 -29
-33 -42 -52 -26 -18 14 -9 29 17 29 29 0 20 34 -9 38 -31 5 -52 -15 -52 -47 0
-37 17 -51 60 -51 48 0 80 30 80 75 0 51 -13 77 -76 144 l-58 63 -13 -26 c-8
-14 -18 -26 -23 -26 -13 0 -13 17 0 25 17 10 11 47 -15 100 -29 59 -32 52 -8
-16 14 -38 15 -51 5 -61 -9 -9 -12 -7 -12 13 0 14 -9 52 -20 84 -24 70 -25
124 -4 195 9 29 14 64 11 77 -3 15 1 23 9 23 7 0 27 29 45 65 30 63 30 64 12
89 -10 14 -21 26 -24 26 -3 0 -7 -24 -8 -52 -2 -55 -11 -75 -30 -64 -16 10
-13 26 4 26 24 0 21 124 -3 142 -15 11 -18 20 -13 44 0 3 17 -18 37 -47 54
-80 63 -88 75 -66 6 9 14 17 20 17 5 0 2 -11 -7 -25 -13 -21 -14 -28 -4 -41
12 -13 17 -9 43 31 40 61 55 58 17 -4 -17 -26 -30 -52 -30 -56 0 -4 9 -20 21
-36 25 -36 8 -39 -20 -3 l-20 25 -16 -31 c-9 -18 -19 -29 -22 -26 -4 3 2 22
13 41 14 26 15 38 7 46 -9 9 -19 -4 -42 -49 -49 -98 -62 -142 -66 -232 -3 -75
-3 -78 4 -25 11 86 42 137 106 174 17 10 14 10 -18 5 -22 -4 -37 -2 -37 4 0
14 25 22 78 23 52 1 122 16 86 18 -28 1 -44 20 -44 51 l0 25 13 -25 c18 -35
63 -37 125 -6 59 30 92 72 99 126 6 42 -8 70 -34 70 -11 0 -14 -8 -11 -30 4
-24 1 -30 -13 -30 -10 0 -23 8 -28 18 -10 16 -10 16 -11 -1 0 -10 12 -30 26
-44 20 -20 23 -28 12 -34 -22 -14 -40 -10 -45 10 -7 27 -53 23 -76 -6 -10 -13
-23 -23 -28 -23 -16 0 -10 29 11 50 23 23 25 30 7 30 -7 0 -22 6 -33 14 -15
12 -17 17 -6 27 9 10 15 10 24 1 21 -21 46 -13 75 23 15 19 36 35 45 35 26 0
99 41 105 59 19 53 46 53 107 0z m1210 35 c9 -3 16 -15 16 -25 0 -10 11 -26
25 -35 20 -13 28 -14 40 -4 10 9 15 9 15 1 0 -6 -5 -11 -11 -11 -5 0 -7 -4 -4
-10 3 -5 18 -10 33 -10 20 0 34 -10 51 -35 22 -33 36 -40 70 -36 8 2 10 -2 5
-10 -4 -8 -3 -10 4 -5 6 4 9 13 5 21 -6 17 12 21 22 5 10 -16 -16 -42 -37 -37
-24 7 -23 -15 2 -38 11 -10 20 -26 20 -37 0 -23 -7 -23 -28 0 -10 10 -29 24
-44 30 -24 10 -29 9 -38 -8 -11 -21 -45 -27 -55 -10 -4 6 5 20 19 31 14 11 26
30 26 42 0 21 0 21 -16 -1 -20 -29 -38 -23 -39 13 0 37 -22 44 -36 12 -17 -37
-3 -92 33 -132 16 -19 27 -35 23 -35 -4 0 -2 -7 5 -15 7 -8 17 -15 23 -15 6 0
2 7 -9 15 -25 19 -15 19 29 0 54 -22 108 -20 114 5 3 11 10 20 15 20 5 0 7
-10 3 -22 -6 -22 -6 -22 9 -4 20 24 20 36 3 61 -39 56 -48 75 -39 75 6 0 22
-21 37 -46 21 -36 29 -43 41 -34 11 10 11 16 -2 41 -8 16 -10 29 -5 29 6 0 15
-9 21 -21 11 -19 14 -17 55 38 25 32 45 64 45 71 0 24 20 12 20 -13 0 -15 -6
-25 -14 -25 -19 0 -26 -22 -26 -82 0 -37 5 -54 18 -64 14 -10 15 -15 4 -26
-23 -23 -37 19 -34 100 1 29 -2 28 -28 -7 l-20 -30 31 -64 c19 -38 37 -63 44
-60 8 3 11 -4 8 -21 -3 -13 3 -55 12 -92 17 -70 15 -147 -7 -187 -5 -11 -13
-40 -17 -66 -6 -36 -10 -42 -16 -27 -6 13 -1 40 13 80 26 71 28 150 7 221 -22
72 -76 195 -87 195 -17 0 -20 -29 -4 -52 25 -35 19 -47 -7 -14 l-23 29 -21
-27 c-20 -25 -41 -37 -28 -16 3 6 -6 4 -21 -2 -27 -12 -24 -13 44 -19 40 -4
79 -10 87 -13 23 -8 18 -28 -5 -22 -60 17 -64 17 -30 -4 19 -12 43 -32 52 -43
19 -24 24 -16 8 14 -7 12 -7 19 -1 19 12 0 24 -36 17 -49 -3 -5 1 -25 9 -45
22 -52 18 -113 -10 -174 -27 -59 -31 -92 -13 -110 9 -9 8 -12 -4 -12 -9 0 -20
9 -23 20 -3 11 -10 20 -14 20 -11 0 -76 -70 -105 -114 -48 -71 -28 -149 40
-162 63 -12 99 50 53 92 -15 14 -24 16 -37 8 -27 -18 -28 -44 0 -42 28 3 32
-25 5 -30 -24 -5 -47 16 -47 42 0 28 18 46 47 46 19 0 23 5 23 30 0 57 67 92
104 54 32 -32 4 -90 -32 -67 -25 15 -29 46 -5 41 10 -2 17 -10 16 -16 -2 -7 2
-12 8 -12 6 0 9 10 7 23 -2 14 -11 23 -26 25 -49 7 -67 -41 -36 -100 10 -18
14 -42 10 -59 -4 -23 -2 -29 12 -29 10 0 28 -7 40 -16 26 -18 31 -71 7 -80
-20 -8 -49 16 -36 29 7 7 15 6 26 -3 12 -10 15 -10 15 3 0 34 -29 48 -101 46
-49 -1 -75 3 -94 15 -14 9 -30 14 -35 11 -6 -4 -10 7 -10 24 0 25 -4 31 -22
32 -15 1 -17 3 -7 6 9 2 23 22 32 43 14 37 14 39 -1 31 -10 -5 -32 -25 -50
-44 -37 -38 -41 -79 -9 -85 15 -3 18 0 12 18 -5 16 -3 21 6 18 8 -3 14 -13 14
-24 0 -13 -8 -20 -27 -22 -35 -4 -59 37 -40 69 16 25 15 30 -5 22 -16 -6 -16
-5 -4 10 7 9 22 17 32 17 12 0 16 5 13 15 -5 11 1 15 18 15 13 0 33 6 43 14
17 13 14 15 -39 26 -31 6 -64 9 -72 6 -16 -6 -19 -36 -3 -36 5 0 8 4 4 9 -8
15 15 25 28 12 15 -15 -16 -46 -37 -38 -27 11 -30 37 -8 59 18 19 25 20 66 9
53 -13 96 -14 115 -2 8 5 -4 7 -32 4 -61 -7 -119 25 -147 82 -26 53 -25 77 4
161 34 99 41 148 22 163 -8 7 -20 10 -26 6 -8 -5 -6 -11 4 -18 11 -8 13 -17 7
-26 -8 -12 -12 -12 -25 -2 -15 12 -16 -56 -16 -750 0 -446 4 -758 9 -750 9 15
41 9 41 -8 0 -5 -8 -11 -17 -14 -17 -4 -17 -4 1 -12 41 -18 43 49 3 155 -55
146 5 257 134 248 27 -1 49 0 49 4 0 13 -60 19 -97 9 -53 -15 -79 -14 -97 5
-20 19 -20 29 0 48 12 12 20 13 35 5 21 -11 21 -30 1 -37 -7 -2 -12 4 -12 14
0 14 -3 15 -12 6 -9 -9 -9 -15 2 -26 13 -12 25 -12 75 -2 l60 13 -28 17 c-15
10 -34 16 -42 12 -10 -4 -15 -1 -13 9 2 7 1 13 -2 13 -3 -1 -15 4 -27 11 -25
13 -32 37 -9 28 11 -5 12 0 3 24 -10 25 -8 32 10 50 14 15 27 19 42 14 25 -8
29 -45 5 -45 -11 0 -14 5 -10 16 4 11 1 14 -12 12 -36 -7 -26 -48 24 -94 26
-24 49 -42 51 -40 7 6 -28 76 -37 76 -6 0 -10 5 -10 10 0 6 7 10 15 10 9 0 15
9 15 23 0 35 69 61 140 53 42 -5 60 -3 78 9 22 16 30 45 12 45 -5 0 -10 -4
-10 -10 0 -5 -6 -7 -14 -4 -22 8 -7 34 19 34 26 0 37 -28 22 -56 -14 -25 -27
-34 -54 -34 -19 0 -21 -4 -16 -33 3 -21 -1 -46 -11 -65 -32 -61 -8 -113 44
-97 20 6 27 39 11 49 -5 3 -8 -2 -7 -12 0 -9 -6 -17 -14 -17 -8 0 -15 9 -15
20 0 16 7 20 30 20 27 0 30 -3 30 -30 0 -58 -72 -67 -105 -13 l-18 29 -6 -25
c-3 -13 -3 -33 0 -43 6 -14 4 -16 -6 -6 -7 6 -16 30 -20 52 -7 39 -6 41 16 37
35 -7 39 11 4 17 -16 4 -34 16 -40 27 -20 38 8 78 45 63 23 -8 12 -28 -14 -27
-17 0 -21 -4 -19 -20 4 -25 42 -34 64 -16 17 15 19 61 2 78 -19 19 -73 14
-102 -9 -31 -24 -35 -72 -11 -123 20 -41 125 -146 125 -124 0 17 27 44 36 35
3 -3 0 -14 -8 -26 -10 -17 -10 -26 1 -53 34 -85 40 -106 41 -146 0 -72 -34
-135 -95 -174 l-30 -19 40 7 c36 7 39 6 26 -9 -9 -12 -30 -17 -65 -18 -56 -1
-128 -16 -89 -18 25 -1 58 -44 48 -61 -5 -8 -11 -3 -19 12 -35 71 -205 -15
-221 -112 -7 -42 7 -80 30 -80 10 0 15 10 15 30 0 34 23 41 39 13 10 -17 10
-17 11 0 0 10 -12 30 -26 44 -20 20 -23 28 -12 34 23 15 38 10 49 -15 10 -21
14 -23 33 -13 11 7 33 23 49 36 l27 25 0 -26 c0 -14 -9 -33 -20 -43 -23 -20
-27 -37 -7 -29 7 2 21 -2 32 -10 16 -12 18 -17 8 -27 -10 -10 -16 -10 -25 -1
-21 21 -46 13 -74 -23 -14 -19 -35 -35 -46 -35 -33 0 -97 -43 -107 -72 -12
-34 -35 -36 -81 -5 -19 13 -41 22 -47 20 -7 -3 -13 0 -13 7 0 6 6 8 13 5 6 -4
1 3 -12 14 -13 12 -29 21 -36 21 -15 0 -45 -27 -45 -39 0 -14 29 -33 40 -26
15 9 12 25 -5 25 -8 0 -15 5 -15 10 0 6 9 10 20 10 19 0 22 -4 24 -32 1 -7 17
-16 36 -19 26 -5 20 -6 -27 -6 -42 -1 -66 4 -74 13 -9 12 -85 14 -435 14 -276
0 -424 3 -424 10 0 6 67 10 181 10 117 0 178 3 174 10 -3 6 1 10 10 10 9 0 13
-4 10 -10 -3 -5 1 -10 9 -10 9 0 16 5 16 10 0 6 5 10 11 10 5 0 7 -4 4 -10 -4
-6 5 -10 19 -10 14 0 26 5 26 10 0 6 5 10 11 10 5 0 7 -4 4 -10 -8 -12 -14
-12 190 -14 l170 -2 17 28 c10 15 22 28 28 28 5 0 10 7 10 15 0 8 5 15 10 15
6 0 9 -5 8 -11 -2 -6 7 -15 20 -20 13 -5 22 -5 22 1 0 6 -4 10 -10 10 -5 0
-10 5 -10 10 0 19 29 10 49 -16 15 -20 21 -22 21 -10 0 9 5 16 10 16 9 0 14
-14 11 -32 0 -3 7 -5 17 -4 30 5 26 35 -7 54 -25 13 -31 24 -31 50 0 31 30
105 47 115 5 3 7 199 5 437 -1 278 -6 429 -12 425 -6 -3 -10 -1 -10 4 0 6 5
11 10 11 7 0 10 169 10 486 0 301 4 483 9 479 6 -3 10 -143 10 -343 0 -185 0
-595 1 -910 l0 -572 60 30 c32 16 94 39 137 51 86 24 123 40 142 63 7 9 17 14
21 11 5 -3 12 0 16 6 5 8 3 9 -6 4 -10 -6 -11 -4 -5 11 14 31 10 82 -9 103
-12 13 -14 21 -6 26 12 8 60 -20 60 -35 0 -6 5 -10 11 -10 18 0 3 83 -25 139
-33 65 -79 103 -120 99 -23 -2 -32 -8 -34 -26 -2 -12 -8 -20 -13 -17 -12 8
-12 45 1 45 6 0 10 5 10 11 0 15 -65 3 -96 -17 -30 -20 -54 -73 -54 -119 0
-29 8 -45 34 -71 29 -29 41 -34 80 -34 36 0 52 6 71 25 50 49 19 130 -48 123
-27 -2 -33 -8 -35 -31 -3 -21 1 -27 15 -27 11 0 24 5 30 11 15 15 33 3 33 -21
0 -53 -82 -68 -127 -24 -20 20 -24 31 -19 57 7 34 51 87 74 87 7 0 -3 -15 -23
-34 -44 -42 -45 -78 -3 -109 23 -17 31 -19 53 -9 32 15 32 31 0 24 -52 -9 -76
52 -33 82 65 46 148 -29 119 -107 -13 -35 -66 -67 -111 -68 l-35 -1 28 -10
c15 -5 27 -14 27 -18 0 -5 -13 -4 -30 1 -16 6 -30 17 -30 24 0 12 -29 30 -36
23 -1 -2 25 -38 58 -81 33 -43 57 -81 54 -84 -4 -4 -13 2 -20 13 -8 10 -22 28
-31 39 -16 20 -16 19 -11 -7 3 -14 9 -33 12 -42 3 -9 2 -16 -4 -16 -5 0 -17
26 -25 58 -11 37 -16 46 -15 27 1 -16 0 -37 0 -46 -4 -34 -66 -35 -75 -1 -3 9
-5 -6 -6 -35 0 -28 -5 -55 -11 -58 -7 -4 -10 290 -10 875 0 638 3 879 11 874
7 -4 9 -25 6 -54 l-5 -47 24 24 c19 19 28 22 44 13 20 -11 23 -21 21 -70 0
-14 6 -3 14 24 7 27 19 54 26 60 9 8 10 7 5 -7 -3 -11 -9 -31 -12 -45 -5 -25
-3 -24 30 13 52 59 44 34 -17 -48 -66 -89 -77 -107 -56 -90 8 7 33 15 54 18
32 5 47 2 75 -17 51 -34 66 -70 48 -116 -18 -47 -60 -66 -106 -47 -26 12 -32
20 -32 45 0 37 39 62 65 40 12 -10 15 -10 15 3 0 30 -62 37 -92 10 -26 -23
-23 -66 8 -97 15 -14 31 -26 35 -26 5 0 9 -4 9 -10 0 -36 -78 33 -86 77 -5 27
-1 37 24 63 34 33 66 38 100 14 23 -16 28 -39 12 -64 -8 -13 -11 -12 -23 4
-17 24 -47 15 -47 -13 0 -19 26 -41 50 -41 20 0 60 49 60 74 0 14 -11 38 -24
53 -21 24 -32 28 -75 28 -66 0 -101 -32 -108 -97 -9 -77 35 -136 109 -145 41
-6 42 -5 27 13 -9 10 -14 25 -12 32 7 19 23 14 23 -7 0 -24 29 -35 62 -22 31
12 84 72 103 118 18 44 21 140 3 108 -14 -25 -28 -35 -52 -35 -17 0 -17 2 -3
23 32 49 25 98 -18 140 -28 27 -56 40 -133 61 -184 52 -272 120 -272 213 0 29
4 43 13 43 23 0 52 39 40 51 -14 14 -33 3 -33 -17 0 -8 -4 -14 -10 -14 -5 0
-10 8 -10 17 0 14 -3 13 -20 -5 -12 -12 -28 -22 -37 -22 -13 0 -14 3 -5 12 20
20 14 27 -13 15 -14 -7 -25 -16 -25 -20 0 -4 -13 6 -30 23 -55 57 -31 95 63
98 37 2 57 -2 57 -9 0 -7 -13 -10 -35 -7 -25 3 -34 0 -31 -8 7 -17 -19 -48
-32 -40 -17 10 -15 24 6 29 16 4 16 4 -1 12 -26 11 -45 -10 -31 -33 8 -11 22
-16 45 -15 51 4 59 6 53 14 -8 13 39 52 83 68 1 1 8 -2 17 -5z m-1534 -41 c15
-16 33 -27 44 -25 26 5 44 -14 28 -30 -10 -10 -15 -10 -22 2 -9 13 -11 13 -20
0 -5 -8 -10 -20 -10 -27 0 -6 -4 -14 -9 -18 -6 -3 -9 12 -8 36 1 33 -4 44 -23
60 -33 25 -91 24 -124 -2 -48 -38 -25 -139 32 -139 24 0 42 19 42 44 0 16 -3
17 -12 8 -18 -18 -28 -15 -28 8 0 24 32 27 50 5 30 -36 -23 -95 -71 -80 -48
15 -75 97 -49 145 30 57 134 64 180 13z m1314 27 c-8 -8 -143 -10 -437 -8
l-426 3 6 -26 c4 -20 -1 -31 -21 -46 -14 -12 -26 -27 -26 -34 -1 -9 -4 -8 -11
4 -5 9 -17 17 -25 17 -8 0 -12 5 -9 10 3 6 17 10 29 10 13 0 29 7 36 15 15 18
6 45 -15 45 -18 0 -20 -16 -2 -23 9 -4 9 -8 -3 -16 -19 -13 -30 -5 -30 23 0
19 -4 22 -29 18 -16 -2 -31 1 -35 6 -4 7 158 11 501 12 362 0 504 -3 497 -10z
m580 -4 c18 -8 41 -24 50 -37 21 -30 20 -88 -2 -116 -41 -53 -133 -29 -118 31
8 32 30 43 51 26 12 -10 13 -16 4 -26 -9 -11 -15 -11 -25 -3 -9 7 -14 8 -14 1
0 -62 80 -54 103 10 19 53 -46 116 -106 104 -48 -10 -67 -33 -67 -83 0 -27 -4
-42 -10 -38 -5 3 -10 14 -10 24 0 10 -7 24 -15 31 -10 9 -15 9 -15 1 0 -6 -7
-11 -16 -11 -27 0 -11 35 16 36 14 0 38 12 53 26 25 23 38 29 80 37 4 0 23 -5
41 -13z m-1534 -26 c0 -5 -2 -10 -4 -10 -3 0 -8 5 -11 10 -3 6 -1 10 4 10 6 0
11 -4 11 -10z m940 0 c0 -7 -68 -10 -197 -10 -133 1 -199 -2 -201 -9 -2 -6 -8
-11 -13 -11 -6 0 -7 5 -4 10 4 6 -5 10 -19 10 -14 0 -26 -6 -26 -12 0 -10 -2
-10 -8 -1 -5 8 -60 13 -185 14 -97 1 -177 6 -177 11 0 4 187 8 415 8 279 0
415 -3 415 -10z m130 0 c0 -5 -7 -10 -16 -10 -8 0 -12 5 -9 10 3 6 10 10 16
10 5 0 9 -4 9 -10z m-1490 -9 c0 -6 -4 -13 -10 -16 -5 -3 -10 1 -10 9 0 9 5
16 10 16 6 0 10 -4 10 -9z m1913 -12 c-4 -16 -8 -17 -14 -7 -13 19 -11 28 5
28 9 0 12 -7 9 -21z m-1966 -15 c-9 -9 -28 6 -21 18 4 6 10 6 17 -1 6 -6 8
-13 4 -17z m273 22 c0 -3 -4 -8 -10 -11 -5 -3 -10 -1 -10 4 0 6 5 11 10 11 6
0 10 -2 10 -4z m1750 -17 c0 -5 -7 -9 -15 -9 -9 0 -12 6 -9 15 6 15 24 11 24
-6z m-1932 -1 c-2 -6 -10 -14 -16 -16 -7 -2 -10 2 -6 12 7 18 28 22 22 4z
m1019 6 c-3 -3 -12 -4 -19 -1 -8 3 -5 6 6 6 11 1 17 -2 13 -5z m38 -4 c3 -5 1
-10 -4 -10 -6 0 -11 5 -11 10 0 6 2 10 4 10 3 0 8 -4 11 -10z m175 0 c0 -5 -2
-10 -4 -10 -3 0 -8 5 -11 10 -3 6 -1 10 4 10 6 0 11 -4 11 -10z m608 -25 c-9
-9 -30 14 -23 25 6 9 10 8 17 -4 6 -10 8 -19 6 -21z m-1268 5 c0 -5 -5 -10
-11 -10 -5 0 -7 5 -4 10 3 6 8 10 11 10 2 0 4 -4 4 -10z m50 0 c0 -5 -5 -10
-11 -10 -5 0 -7 5 -4 10 3 6 8 10 11 10 2 0 4 -4 4 -10z m40 0 c0 -5 -4 -10
-10 -10 -5 0 -10 5 -10 10 0 6 5 10 10 10 6 0 10 -4 10 -10z m385 -5 c363 -95
524 -532 306 -835 -14 -19 -18 -29 -8 -22 31 25 38 7 7 -20 -22 -19 -30 -22
-30 -11 0 10 -7 6 -22 -12 -12 -15 -49 -45 -81 -66 -33 -22 -57 -39 -54 -39 3
0 50 22 104 49 107 53 143 67 143 54 0 -4 -81 -44 -180 -88 -98 -44 -178 -81
-176 -82 1 -2 83 24 181 57 97 33 182 60 186 60 22 0 6 -19 -20 -25 -32 -7
-359 -113 -351 -114 3 0 91 17 195 38 108 23 194 36 199 31 10 -10 21 -8 -224
-54 -117 -23 -161 -34 -120 -31 36 2 110 7 165 10 55 3 119 8 143 11 31 4 42
2 42 -8 0 -8 -10 -14 -22 -14 -13 0 -111 -4 -218 -9 l-195 -9 100 -7 c227 -17
262 -19 298 -19 26 0 37 -4 37 -15 0 -8 -6 -13 -12 -10 -7 2 -49 6 -93 10 -44
3 -100 8 -125 10 -121 12 -174 16 -169 11 3 -4 84 -22 180 -41 226 -45 224
-44 213 -55 -9 -9 -70 4 -309 60 -44 10 -81 18 -82 16 -2 -2 82 -31 187 -65
105 -34 188 -66 185 -71 -6 -10 -19 -7 -204 59 -79 28 -146 50 -148 48 -2 -3
242 -117 303 -141 13 -6 24 -16 24 -23 0 -8 -49 12 -131 53 -72 36 -133 64
-134 62 -2 -2 21 -16 50 -32 68 -35 171 -143 207 -216 64 -132 74 -287 29
-420 -15 -42 -19 -66 -12 -68 6 -2 11 -8 11 -14 0 -7 -5 -6 -14 1 -11 9 -19 3
-39 -32 -55 -94 -192 -195 -316 -233 -73 -23 -242 -17 -318 11 -272 98 -429
380 -356 640 9 33 16 71 15 84 0 18 2 20 9 10 7 -12 9 -12 9 0 0 7 18 41 41
75 29 43 33 54 16 38 -15 -14 -27 -19 -31 -13 -4 6 7 17 24 26 16 8 30 13 30
9 0 -4 17 9 38 29 20 20 48 45 62 56 16 14 -7 6 -65 -20 -115 -52 -123 -60
-102 -93 10 -14 17 -28 17 -31 0 -15 -20 9 -42 48 -69 123 -83 302 -34 442 15
44 39 94 52 112 l24 32 -18 35 c-11 20 -22 33 -25 30 -3 -3 -4 1 -4 8 1 7 -7
49 -17 92 -66 279 107 565 385 640 72 19 211 20 284 1z m125 5 c0 -5 -5 -10
-11 -10 -5 0 -7 5 -4 10 3 6 8 10 11 10 2 0 4 -4 4 -10z m35 1 c3 -5 1 -12 -5
-16 -5 -3 -10 1 -10 9 0 18 6 21 15 7z m50 0 c3 -5 1 -12 -5 -16 -5 -3 -10 1
-10 9 0 18 6 21 15 7z m-725 -11 c0 -5 -4 -10 -10 -10 -5 0 -10 5 -10 10 0 6
5 10 10 10 6 0 10 -4 10 -10z m160 0 c0 -5 -4 -10 -10 -10 -5 0 -10 5 -10 10
0 6 5 10 10 10 6 0 10 -4 10 -10z m610 0 c0 -5 -5 -10 -11 -10 -5 0 -7 5 -4
10 3 6 8 10 11 10 2 0 4 -4 4 -10z m-1415 -10 c-3 -5 -10 -10 -16 -10 -5 0 -9
5 -9 10 0 6 7 10 16 10 8 0 12 -4 9 -10z m595 0 c0 -5 -4 -10 -10 -10 -5 0
-10 5 -10 10 0 6 5 10 10 10 6 0 10 -4 10 -10z m870 0 c0 -5 -4 -10 -10 -10
-5 0 -10 5 -10 10 0 6 5 10 10 10 6 0 10 -4 10 -10z m600 0 c0 -5 -7 -10 -16
-10 -8 0 -12 5 -9 10 3 6 10 10 16 10 5 0 9 -4 9 -10z m-720 -10 c0 -5 -2 -10
-4 -10 -3 0 -8 5 -11 10 -3 6 -1 10 4 10 6 0 11 -4 11 -10z m-880 -10 c0 -5
-4 -10 -10 -10 -5 0 -10 5 -10 10 0 6 5 10 10 10 6 0 10 -4 10 -10z m210 0 c0
-5 -4 -10 -10 -10 -5 0 -10 5 -10 10 0 6 5 10 10 10 6 0 10 -4 10 -10z m710 0
c0 -5 -4 -10 -10 -10 -5 0 -10 5 -10 10 0 6 5 10 10 10 6 0 10 -4 10 -10z m55
0 c3 -5 -1 -10 -10 -10 -9 0 -13 5 -10 10 3 6 8 10 10 10 2 0 7 -4 10 -10z
m-715 -10 c0 -5 -5 -10 -11 -10 -5 0 -7 5 -4 10 3 6 8 10 11 10 2 0 4 -4 4
-10z m-710 -10 c0 -5 -4 -10 -10 -10 -5 0 -10 5 -10 10 0 6 5 10 10 10 6 0 10
-4 10 -10z m580 0 c0 -5 -5 -10 -11 -10 -5 0 -7 5 -4 10 3 6 8 10 11 10 2 0 4
-4 4 -10z m50 0 c0 -5 -5 -10 -11 -10 -5 0 -7 5 -4 10 3 6 8 10 11 10 2 0 4
-4 4 -10z m850 0 c0 -5 -4 -10 -10 -10 -5 0 -10 5 -10 10 0 6 5 10 10 10 6 0
10 -4 10 -10z m50 0 c0 -5 -2 -10 -4 -10 -3 0 -8 5 -11 10 -3 6 -1 10 4 10 6
0 11 -4 11 -10z m495 1 c3 -5 1 -12 -5 -16 -5 -3 -10 1 -10 9 0 18 6 21 15 7z
m-1505 -21 c0 -5 -4 -10 -10 -10 -5 0 -10 5 -10 10 0 6 5 10 10 10 6 0 10 -4
10 -10z m990 0 c0 -5 -5 -10 -11 -10 -5 0 -7 5 -4 10 3 6 8 10 11 10 2 0 4 -4
4 -10z m50 0 c0 -5 -4 -10 -10 -10 -5 0 -10 5 -10 10 0 6 5 10 10 10 6 0 10
-4 10 -10z m-960 -10 c0 -5 -4 -10 -10 -10 -5 0 -10 5 -10 10 0 6 5 10 10 10
6 0 10 -4 10 -10z m830 0 c0 -5 -5 -10 -11 -10 -5 0 -7 5 -4 10 3 6 8 10 11
10 2 0 4 -4 4 -10z m-985 -10 c3 -5 1 -10 -4 -10 -6 0 -11 5 -11 10 0 6 2 10
4 10 3 0 8 -4 11 -10z m105 0 c0 -5 -2 -10 -4 -10 -3 0 -8 5 -11 10 -3 6 -1
10 4 10 6 0 11 -4 11 -10z m930 0 c0 -5 -4 -10 -10 -10 -5 0 -10 5 -10 10 0 6
5 10 10 10 6 0 10 -4 10 -10z m-90 -4 c0 -3 -4 -8 -10 -11 -5 -3 -10 -1 -10 4
0 6 5 11 10 11 6 0 10 -2 10 -4z m160 -6 c0 -5 -4 -10 -10 -10 -5 0 -10 5 -10
10 0 6 5 10 10 10 6 0 10 -4 10 -10z m-85 -20 c3 -5 1 -10 -4 -10 -6 0 -11 5
-11 10 0 6 2 10 4 10 3 0 8 -4 11 -10z m45 0 c0 -5 -4 -10 -10 -10 -5 0 -10 5
-10 10 0 6 5 10 10 10 6 0 10 -4 10 -10z m-1040 -10 c0 -5 -4 -10 -10 -10 -5
0 -10 5 -10 10 0 6 5 10 10 10 6 0 10 -4 10 -10z m1090 -6 c0 -8 -4 -12 -10
-9 -5 3 -10 10 -10 16 0 5 5 9 10 9 6 0 10 -7 10 -16z m-1060 -14 c0 -5 -4
-10 -10 -10 -5 0 -10 5 -10 10 0 6 5 10 10 10 6 0 10 -4 10 -10z m40 0 c0 -5
-4 -10 -10 -10 -5 0 -10 5 -10 10 0 6 5 10 10 10 6 0 10 -4 10 -10z m950 0 c0
-5 -4 -10 -10 -10 -5 0 -10 5 -10 10 0 6 5 10 10 10 6 0 10 -4 10 -10z m37
-12 c-3 -8 -6 -5 -6 6 -1 11 2 17 5 13 3 -3 4 -12 1 -19z m66 8 c4 -10 1 -13
-9 -9 -15 6 -19 23 -5 23 5 0 11 -7 14 -14z m-138 -6 c3 -5 1 -10 -4 -10 -6 0
-11 5 -11 10 0 6 2 10 4 10 3 0 8 -4 11 -10z m-1258 -21 c-10 -6 -22 -20 -27
-32 -8 -21 -9 -21 -9 -1 -1 24 17 44 39 44 12 -1 11 -3 -3 -11z m1650 -29 c0
-22 -1 -26 -4 -11 -3 13 -13 26 -24 28 -23 6 -18 19 8 19 15 0 19 -8 20 -36z
m-1297 20 c0 -5 -5 -10 -11 -10 -5 0 -7 5 -4 10 3 6 8 10 11 10 2 0 4 -4 4
-10z m930 0 c0 -5 -5 -10 -11 -10 -5 0 -7 5 -4 10 3 6 8 10 11 10 2 0 4 -4 4
-10z m80 0 c0 -5 -4 -10 -10 -10 -5 0 -10 5 -10 10 0 6 5 10 10 10 6 0 10 -4
10 -10z m-1135 -30 c3 -5 1 -10 -4 -10 -6 0 -11 5 -11 10 0 6 2 10 4 10 3 0 8
-4 11 -10z m105 0 c0 -5 -5 -10 -11 -10 -5 0 -7 5 -4 10 3 6 8 10 11 10 2 0 4
-4 4 -10z m970 -6 c0 -8 -5 -12 -10 -9 -6 4 -8 11 -5 16 9 14 15 11 15 -7z
m35 7 c3 -5 1 -12 -5 -16 -5 -3 -10 1 -10 9 0 18 6 21 15 7z m35 -1 c0 -5 -4
-10 -10 -10 -5 0 -10 5 -10 10 0 6 5 10 10 10 6 0 10 -4 10 -10z m27 -12 c-3
-8 -6 -5 -6 6 -1 11 2 17 5 13 3 -3 4 -12 1 -19z m-1258 -895 c-1 -494 -4
-882 -8 -863 -4 25 -6 1738 -2 1758 9 37 11 -152 10 -895z m1351 2 c0 -578 -3
-886 -10 -890 -7 -4 -10 295 -10 890 0 595 3 894 10 890 7 -4 10 -312 10 -890z
m-1380 -2 c0 -644 -3 -874 -11 -866 -6 6 -10 29 -7 51 l3 40 -23 -19 c-35 -27
-62 -10 -63 39 l-1 37 -15 -48 c-8 -26 -18 -47 -23 -47 -5 0 -3 19 5 43 l15
42 -35 -40 c-19 -22 -35 -43 -35 -46 0 -4 15 -9 33 -13 59 -12 165 -58 202
-88 41 -34 60 -68 68 -121 5 -33 3 -39 -16 -46 -45 -17 -56 -58 -16 -58 11 0
15 7 11 19 -2 10 1 18 7 18 6 0 11 -4 11 -9 0 -6 9 -9 19 -8 11 0 19 6 18 11
-1 5 7 12 18 14 16 3 18 1 8 -9 -21 -21 -15 -28 12 -16 14 7 25 15 25 20 0 4
5 7 10 7 6 0 9 -3 8 -7 -2 -5 8 -19 20 -31 16 -16 22 -32 19 -48 l-4 -24 186
-1 c486 -3 672 -6 678 -13 4 -3 -201 -6 -454 -6 -427 1 -462 2 -477 19 -14 15
-14 20 -2 37 12 16 17 17 28 5 10 -11 10 -14 1 -18 -18 -7 -16 -23 2 -23 21 0
30 27 15 45 -16 19 -54 19 -70 0 -10 -12 -10 -15 1 -15 10 0 10 -3 1 -12 -10
-10 -15 -10 -22 2 -5 8 -6 18 -3 24 3 5 1 6 -6 2 -6 -4 -9 -12 -5 -17 12 -20
-63 -63 -91 -53 -8 4 -15 15 -15 25 0 10 -11 26 -25 35 -20 13 -28 14 -40 4
-10 -9 -15 -9 -15 -1 0 6 5 11 11 11 5 0 7 4 4 10 -3 5 -16 10 -29 10 -14 0
-37 16 -59 40 -19 22 -43 40 -51 40 -20 0 -20 2 5 -49 18 -39 22 -41 33 -25 9
12 15 14 20 5 14 -23 -2 -44 -29 -37 -18 5 -27 2 -31 -9 -10 -24 -58 -45 -104
-45 -84 0 -131 97 -79 164 24 30 80 36 105 11 34 -33 -5 -105 -40 -76 -13 11
-14 17 -5 27 9 11 15 11 25 3 11 -9 14 -7 14 9 0 12 -10 26 -21 33 -18 9 -26
7 -48 -8 -51 -38 -36 -120 26 -144 30 -11 90 8 108 35 18 27 10 87 -10 80 -7
-3 -16 0 -20 6 -9 15 23 50 41 43 21 -8 17 11 -6 32 -21 19 -27 55 -10 55 6 0
10 -4 10 -10 0 -8 70 -50 83 -50 3 0 7 9 10 20 3 12 14 20 25 20 32 0 35 -16
7 -44 -30 -30 -35 -58 -6 -32 24 22 40 14 34 -17 -6 -32 23 -44 38 -16 15 30
1 95 -28 130 -57 67 -173 95 -193 47 l-9 -23 0 24 c-1 20 -3 21 -16 11 -21
-17 -19 -34 11 -81 14 -22 24 -45 22 -51 -2 -6 -16 10 -31 35 -16 26 -32 47
-37 47 -16 0 -17 -25 -3 -53 16 -32 8 -36 -16 -6 -16 20 -17 20 -61 -45 -25
-36 -48 -66 -51 -66 -14 0 -4 36 13 48 25 18 26 119 1 138 -15 10 -16 15 -5
25 19 20 31 0 33 -59 3 -58 9 -63 33 -27 15 23 15 28 -16 89 -17 36 -36 62
-43 60 -8 -3 -10 5 -7 24 2 16 -3 53 -12 82 -20 67 -20 101 0 170 8 30 19 73
23 95 6 33 9 37 16 21 6 -13 1 -41 -15 -84 -35 -100 -24 -192 43 -344 14 -30
30 -59 36 -62 19 -12 24 23 7 49 -9 13 -16 30 -16 37 0 7 10 -2 22 -21 l22
-34 22 28 c12 15 27 24 33 21 6 -4 19 -2 28 3 14 8 9 11 -27 11 -69 2 -123 14
-128 29 -5 14 12 12 65 -5 10 -3 5 3 -12 14 -104 68 -130 170 -75 292 27 60
28 67 14 88 -9 13 -14 26 -11 28 6 6 33 -20 41 -38 8 -21 124 108 132 147 11
61 2 88 -37 109 -62 33 -110 3 -95 -59 10 -41 76 -45 76 -4 0 15 -5 19 -19 14
-24 -7 -38 23 -14 32 36 14 69 -41 43 -73 -7 -7 -23 -14 -36 -14 -20 0 -24 -5
-24 -30 0 -57 -67 -92 -104 -54 -23 23 -20 61 5 69 27 9 59 -19 42 -36 -13
-13 -36 -3 -28 12 4 5 1 9 -5 9 -23 0 -6 -45 18 -48 50 -7 65 35 36 103 -8 21
-13 48 -10 61 5 19 2 24 -12 24 -32 0 -62 29 -62 61 0 35 25 49 48 26 20 -21
7 -35 -18 -19 -16 10 -20 10 -20 -2 0 -32 30 -46 101 -46 42 0 81 -6 98 -15
16 -8 31 -11 35 -8 6 7 9 -11 7 -39 -2 -12 5 -18 21 -19 15 -1 17 -3 7 -6 -14
-3 -55 -83 -43 -83 5 0 41 29 71 57 19 18 33 73 19 73 -2 0 -12 3 -21 7 -14 5
-16 2 -10 -17 5 -16 4 -21 -6 -18 -8 3 -14 13 -14 24 0 13 8 20 27 22 36 4 57
-35 40 -73 -10 -21 -9 -23 6 -18 15 6 15 5 3 -10 -7 -9 -22 -17 -33 -17 -17 0
-18 -3 -8 -15 13 -15 8 -19 -22 -16 -10 1 -28 -5 -40 -13 -15 -11 -18 -16 -8
-17 8 0 24 -3 35 -6 47 -13 89 -8 93 10 2 9 -2 17 -8 17 -6 0 -9 -4 -5 -9 3
-5 0 -13 -6 -17 -19 -11 -30 19 -13 36 11 11 19 12 32 4 40 -26 11 -81 -37
-70 -67 15 -120 18 -137 7 -16 -9 -13 -10 18 -5 80 13 162 -44 174 -123 5 -34
0 -62 -19 -121 -36 -110 -40 -134 -23 -157 12 -16 17 -18 27 -8 11 11 10 13
-4 13 -20 0 -23 26 -4 33 6 2 19 -1 27 -9 13 -11 15 79 13 807 -1 499 2 819 8
819 5 0 9 -344 9 -877z m160 867 c0 -5 -4 -10 -10 -10 -5 0 -10 5 -10 10 0 6
5 10 10 10 6 0 10 -4 10 -10z m35 0 c3 -5 1 -10 -4 -10 -6 0 -11 5 -11 10 0 6
2 10 4 10 3 0 8 -4 11 -10z m1055 0 c0 -5 -4 -10 -10 -10 -5 0 -10 5 -10 10 0
6 5 10 10 10 6 0 10 -4 10 -10z m-1160 -14 c0 -3 -4 -8 -10 -11 -5 -3 -10 -1
-10 4 0 6 5 11 10 11 6 0 10 -2 10 -4z m1200 -6 c0 -5 -4 -10 -10 -10 -5 0
-10 5 -10 10 0 6 5 10 10 10 6 0 10 -4 10 -10z m30 0 c0 -5 -5 -10 -11 -10 -5
0 -7 5 -4 10 3 6 8 10 11 10 2 0 4 -4 4 -10z m-1180 -30 c0 -5 -5 -10 -11 -10
-5 0 -7 5 -4 10 3 6 8 10 11 10 2 0 4 -4 4 -10z m1090 0 c0 -5 -2 -10 -4 -10
-3 0 -8 5 -11 10 -3 6 -1 10 4 10 6 0 11 -4 11 -10z m35 0 c3 -5 1 -10 -4 -10
-6 0 -11 5 -11 10 0 6 2 10 4 10 3 0 8 -4 11 -10z m-1150 -20 c3 -5 1 -10 -4
-10 -6 0 -11 5 -11 10 0 6 2 10 4 10 3 0 8 -4 11 -10z m1172 -12 c-3 -8 -6 -5
-6 6 -1 11 2 17 5 13 3 -3 4 -12 1 -19z m33 6 c0 -8 -5 -12 -10 -9 -6 4 -8 11
-5 16 9 14 15 11 15 -7z m-1684 -30 c-4 -9 -9 -15 -11 -12 -3 3 -3 13 1 22 4
9 9 15 11 12 3 -3 3 -13 -1 -22z m184 -32 c0 -22 -31 -62 -49 -62 -9 0 -22 -5
-29 -12 -9 -9 -12 -8 -12 4 0 8 10 23 23 31 21 16 21 16 -21 16 -30 1 -42 5
-39 14 2 7 21 12 46 11 39 -1 52 8 31 21 -5 3 -7 12 -3 20 4 12 10 11 29 -7
13 -13 24 -29 24 -36z m1802 18 c-17 -28 -16 -30 17 -17 23 8 33 8 45 -2 24
-20 19 -27 -19 -26 -41 2 -42 -1 -12 -33 19 -22 19 -24 4 -19 -11 4 -30 10
-44 13 -21 6 -43 38 -43 62 0 4 10 20 22 35 26 32 51 21 30 -13z m-332 10 c0
-5 -4 -10 -10 -10 -5 0 -10 5 -10 10 0 6 5 10 10 10 6 0 10 -4 10 -10z m0 -36
c0 -8 -5 -12 -10 -9 -6 4 -8 11 -5 16 9 14 15 11 15 -7z m30 -24 c0 -5 -2 -10
-4 -10 -3 0 -8 5 -11 10 -3 6 -1 10 4 10 6 0 11 -4 11 -10z m245 -9 c-6 -5
-23 -12 -40 -16 l-30 -6 25 15 c28 17 60 22 45 7z m-300 -11 c3 -5 1 -10 -4
-10 -6 0 -11 5 -11 10 0 6 2 10 4 10 3 0 8 -4 11 -10z m55 -20 c0 -5 -4 -10
-10 -10 -5 0 -10 5 -10 10 0 6 5 10 10 10 6 0 10 -4 10 -10z m-1210 -20 c0 -5
-5 -10 -11 -10 -5 0 -7 5 -4 10 3 6 8 10 11 10 2 0 4 -4 4 -10z m30 0 c0 -5
-5 -10 -11 -10 -5 0 -7 5 -4 10 3 6 8 10 11 10 2 0 4 -4 4 -10z m1130 -6 c0
-8 -5 -12 -10 -9 -6 4 -8 11 -5 16 9 14 15 11 15 -7z m23 -9 c-7 -21 -13 -19
-13 6 0 11 4 18 10 14 5 -3 7 -12 3 -20z m27 -15 c0 -5 -2 -10 -4 -10 -3 0 -8
5 -11 10 -3 6 -1 10 4 10 6 0 11 -4 11 -10z m-1180 -10 c0 -5 -4 -10 -10 -10
-5 0 -10 5 -10 10 0 6 5 10 10 10 6 0 10 -4 10 -10z m1125 0 c3 -5 1 -10 -4
-10 -6 0 -11 5 -11 10 0 6 2 10 4 10 3 0 8 -4 11 -10z m-1595 -12 c0 -34 45
-100 83 -123 23 -14 35 -25 27 -25 -29 0 -79 40 -98 77 -28 54 -35 83 -23 83
6 0 11 -5 11 -12z m1624 -3 c3 -8 1 -15 -4 -15 -6 0 -10 7 -10 15 0 8 2 15 4
15 2 0 6 -7 10 -15z m440 -12 c-14 -59 -50 -105 -101 -132 -27 -14 -33 -14
-33 -1 0 6 6 10 14 10 26 0 83 64 96 108 14 46 34 59 24 15z m-464 -17 c0 -3
-4 -8 -10 -11 -5 -3 -10 -1 -10 4 0 6 5 11 10 11 6 0 10 -2 10 -4z m-1180 -26
c0 -5 -5 -10 -11 -10 -5 0 -7 5 -4 10 3 6 8 10 11 10 2 0 4 -4 4 -10z m60 -14
c0 -3 -4 -8 -10 -11 -5 -3 -10 -1 -10 4 0 6 5 11 10 11 6 0 10 -2 10 -4z
m1137 -21 c0 -8 -4 -15 -9 -15 -10 0 -11 14 -1 23 9 10 10 9 10 -8z m-37 -19
c0 -3 -4 -8 -10 -11 -5 -3 -10 -1 -10 4 0 6 5 11 10 11 6 0 10 -2 10 -4z
m-1120 -26 c0 -5 -2 -10 -4 -10 -3 0 -8 5 -11 10 -3 6 -1 10 4 10 6 0 11 -4
11 -10z m1145 0 c3 -5 1 -10 -4 -10 -6 0 -11 5 -11 10 0 6 2 10 4 10 3 0 8 -4
11 -10z m45 -10 c0 -5 -4 -10 -10 -10 -5 0 -10 5 -10 10 0 6 5 10 10 10 6 0
10 -4 10 -10z m-80 -10 c0 -5 -4 -10 -10 -10 -5 0 -10 5 -10 10 0 6 5 10 10
10 6 0 10 -4 10 -10z m50 -20 c0 -5 -4 -10 -10 -10 -5 0 -10 5 -10 10 0 6 5
10 10 10 6 0 10 -4 10 -10z m-70 -20 c0 -5 -5 -10 -11 -10 -5 0 -7 5 -4 10 3
6 8 10 11 10 2 0 4 -4 4 -10z m30 0 c0 -5 -4 -10 -10 -10 -5 0 -10 5 -10 10 0
6 5 10 10 10 6 0 10 -4 10 -10z m427 -45 c1 -25 -2 -43 -7 -40 -5 3 -11 1 -15
-5 -3 -5 -11 -10 -18 -10 -8 0 -8 3 1 12 7 7 12 22 12 34 0 26 10 54 19 54 3
0 7 -20 8 -45z m-1581 0 c9 -8 11 -15 6 -15 -5 0 -15 7 -22 15 -7 8 -9 15 -6
15 4 0 14 -7 22 -15z m74 5 c0 -5 -2 -10 -4 -10 -3 0 -8 5 -11 10 -3 6 -1 10
4 10 6 0 11 -4 11 -10z m1104 -149 c14 -40 26 -88 26 -107 0 -19 4 -33 9 -30
10 6 7 -60 -7 -150 -15 -92 -89 -263 -114 -264 -13 0 -9 12 27 85 46 94 65
173 65 270 -1 101 -19 176 -64 267 -19 39 -33 75 -29 81 9 14 58 -70 87 -152z
m-34 149 c0 -5 -4 -10 -10 -10 -5 0 -10 5 -10 10 0 6 5 10 10 10 6 0 10 -4 10
-10z m30 0 c0 -5 -2 -10 -4 -10 -3 0 -8 5 -11 10 -3 6 -1 10 4 10 6 0 11 -4
11 -10z m34 -14 c-10 -8 -21 -12 -23 -10 -3 2 4 11 15 18 10 8 21 12 23 10 3
-2 -4 -11 -15 -18z m-96 -79 c82 -166 80 -362 -4 -518 -15 -27 -31 -49 -35
-49 -4 0 3 19 16 43 55 100 81 241 63 353 -11 71 -40 155 -67 193 -23 32 -26
41 -12 41 4 0 22 -28 39 -63z m59 47 c-3 -3 -12 -4 -19 -1 -8 3 -5 6 6 6 11 1
17 -2 13 -5z m-1651 -57 c14 17 15 17 9 -5 -4 -13 -1 -30 7 -39 11 -15 11 -16
-6 -10 -12 5 -23 2 -30 -9 -10 -13 -12 -8 -11 28 2 60 7 78 12 45 4 -27 5 -28
19 -10z m1664 23 c0 -5 -4 -10 -10 -10 -5 0 -10 5 -10 10 0 6 5 10 10 10 6 0
10 -4 10 -10z m525 -55 c1 -51 0 -54 -15 -40 -10 9 -25 13 -36 9 -17 -5 -18
-4 -2 8 11 9 14 23 11 43 -5 29 -5 29 11 10 15 -19 15 -19 16 9 0 51 13 19 15
-39z m-485 51 c0 -3 -4 -8 -10 -11 -5 -3 -10 -1 -10 4 0 6 5 11 10 11 6 0 10
-2 10 -4z m-1213 -38 c-3 -8 -6 -5 -6 6 -1 11 2 17 5 13 3 -3 4 -12 1 -19z
m1213 -8 c0 -5 -5 -10 -11 -10 -5 0 -7 5 -4 10 3 6 8 10 11 10 2 0 4 -4 4 -10z
m0 -34 c0 -3 -4 -8 -10 -11 -5 -3 -10 -1 -10 4 0 6 5 11 10 11 6 0 10 -2 10
-4z m-1407 -37 c53 -29 72 -86 40 -121 -20 -22 -46 -23 -67 -2 -20 19 -20 29
0 48 14 14 13 17 -10 27 -36 17 -103 -4 -173 -54 l-56 -40 28 -23 c48 -38 138
-78 177 -78 47 -1 56 9 33 34 -31 34 -1 69 50 56 50 -13 45 -94 -8 -127 -40
-25 -112 -22 -178 10 -52 24 -163 111 -163 126 0 16 108 99 166 128 57 28 125
35 161 16z m177 7 c0 -3 -4 -8 -10 -11 -5 -3 -10 -1 -10 4 0 6 5 11 10 11 6 0
10 -2 10 -4z m1230 -12 c0 -8 -5 -12 -10 -9 -6 4 -8 11 -5 16 9 14 15 11 15
-7z m326 -19 c38 -19 91 -54 118 -77 l49 -44 -53 -46 c-71 -62 -165 -108 -221
-108 -83 0 -141 69 -105 125 19 29 47 32 70 9 20 -19 20 -29 1 -48 -21 -21
-19 -24 18 -31 42 -8 106 15 169 62 l51 37 -27 21 c-50 40 -136 77 -178 77
-50 -1 -56 -7 -34 -31 28 -31 13 -61 -30 -61 -27 0 -37 5 -46 25 -17 38 1 84
42 106 51 28 98 24 176 -16z m-1797 -85 c0 -10 -6 -7 -20 9 -15 19 -17 26 -7
32 13 8 26 -11 27 -41z m1731 33 c-1 -13 -29 -47 -35 -42 -9 10 8 49 21 49 8
0 14 -3 14 -7z m-1770 -44 c0 -5 -11 -3 -25 3 -26 11 -30 19 -18 31 7 8 43
-21 43 -34z m1820 21 c0 -12 -40 -34 -47 -26 -9 8 17 36 33 36 8 0 14 -4 14
-10z m-1870 -25 c14 -8 45 -15 70 -16 40 -2 41 -3 10 -6 -19 -2 -54 -8 -77
-14 -33 -9 -46 -9 -58 1 -14 12 -14 15 1 31 20 22 22 22 54 4z m1930 -10 c7
-9 11 -17 9 -18 -2 -1 -11 -8 -20 -15 -13 -10 -24 -9 -53 3 -21 9 -51 14 -67
11 -16 -2 -31 0 -35 5 -3 5 16 9 43 9 26 0 55 5 63 10 22 14 46 12 60 -5z
m-1890 -50 c-14 -17 -40 -20 -40 -5 0 11 42 31 49 24 2 -2 -2 -10 -9 -19z
m1830 -6 c0 -18 -22 -20 -35 -3 -21 28 -18 35 10 22 14 -6 25 -15 25 -19z
m-1780 9 c0 -19 -18 -43 -25 -36 -9 9 4 48 16 48 5 0 9 -6 9 -12z m1718 -39
c-13 -8 -26 11 -27 41 0 10 6 7 20 -9 15 -19 17 -26 7 -32z m-1478 -69 c0 -5
-4 -10 -10 -10 -5 0 -10 5 -10 10 0 6 5 10 10 10 6 0 10 -4 10 -10z m-465 -37
c8 4 15 2 15 -3 0 -6 -5 -10 -10 -10 -6 0 -8 -11 -4 -27 7 -25 6 -27 -9 -14
-15 12 -17 11 -17 -9 0 -47 -14 -8 -15 41 -1 43 1 48 11 34 8 -10 20 -15 29
-12z m2181 -32 c-1 -52 -16 -85 -16 -36 0 28 -1 28 -16 9 -15 -18 -15 -18 -10
8 4 15 2 30 -4 33 -5 3 -10 11 -10 17 0 7 4 7 14 -1 10 -9 16 -8 26 4 7 8 13
15 15 15 1 0 1 -22 1 -49z m-489 33 c-3 -3 -12 -4 -19 -1 -8 3 -5 6 6 6 11 1
17 -2 13 -5z m-1227 -34 c0 -5 -2 -10 -4 -10 -3 0 -8 5 -11 10 -3 6 -1 10 4
10 6 0 11 -4 11 -10z m1214 -14 c-10 -8 -21 -12 -23 -10 -3 2 4 11 15 18 10 8
21 12 23 10 3 -2 -4 -11 -15 -18z m-1179 -36 c3 -5 1 -10 -4 -10 -6 0 -11 5
-11 10 0 6 2 10 4 10 3 0 8 -4 11 -10z m1031 -5 c16 -12 16 -14 3 -15 -9 0
-22 7 -29 15 -16 19 0 19 26 0z m-1404 -33 c-7 -2 -12 -14 -12 -27 0 -27 -9
-55 -19 -55 -3 0 -7 20 -8 45 -1 25 2 43 7 40 5 -3 11 -1 15 5 4 6 11 7 18 3
8 -5 8 -8 -1 -11z m348 8 c-8 -5 -19 -10 -25 -10 -5 0 -3 5 5 10 8 5 20 10 25
10 6 0 3 -5 -5 -10z m50 -4 c0 -3 -4 -8 -10 -11 -5 -3 -10 -1 -10 4 0 6 5 11
10 11 6 0 10 -2 10 -4z m1115 -6 c3 -5 1 -10 -4 -10 -6 0 -11 5 -11 10 0 6 2
10 4 10 3 0 8 -4 11 -10z m-1175 -40 c0 -5 -4 -10 -10 -10 -5 0 -10 5 -10 10
0 6 5 10 10 10 6 0 10 -4 10 -10z m50 0 c0 -5 -4 -10 -10 -10 -5 0 -10 5 -10
10 0 6 5 10 10 10 6 0 10 -4 10 -10z m1100 0 c0 -5 -4 -10 -10 -10 -5 0 -10 5
-10 10 0 6 5 10 10 10 6 0 10 -4 10 -10z m30 -6 c0 -8 -5 -12 -10 -9 -6 4 -8
11 -5 16 9 14 15 11 15 -7z m50 6 c0 -5 -5 -10 -11 -10 -5 0 -7 5 -4 10 3 6 8
10 11 10 2 0 4 -4 4 -10z m-20 -24 c0 -3 -4 -8 -10 -11 -5 -3 -10 -1 -10 4 0
6 5 11 10 11 6 0 10 -2 10 -4z m-1145 -16 c3 -5 1 -10 -4 -10 -6 0 -11 5 -11
10 0 6 2 10 4 10 3 0 8 -4 11 -10z m1095 -10 c0 -5 -4 -10 -10 -10 -5 0 -10 5
-10 10 0 6 5 10 10 10 6 0 10 -4 10 -10z m70 0 c0 -5 -2 -10 -4 -10 -3 0 -8 5
-11 10 -3 6 -1 10 4 10 6 0 11 -4 11 -10z m-30 -22 c0 -6 -6 -5 -15 2 -8 7
-15 14 -15 16 0 2 7 1 15 -2 8 -4 15 -11 15 -16z m-50 -8 c0 -5 -5 -10 -11
-10 -5 0 -7 5 -4 10 3 6 8 10 11 10 2 0 4 -4 4 -10z m80 -10 c0 -5 -5 -10 -11
-10 -5 0 -7 5 -4 10 3 6 8 10 11 10 2 0 4 -4 4 -10z m-1190 -10 c0 -5 -4 -10
-10 -10 -5 0 -10 5 -10 10 0 6 5 10 10 10 6 0 10 -4 10 -10z m1150 0 c0 -5 -4
-10 -10 -10 -5 0 -10 5 -10 10 0 6 5 10 10 10 6 0 10 -4 10 -10z m388 -16 c31
-25 49 -53 66 -111 5 -14 3 -23 -3 -23 -6 0 -11 5 -11 10 0 34 -46 103 -84
125 -27 17 -35 25 -22 25 11 0 35 -12 54 -26z m136 -94 c20 -69 20 -113 0
-180 -9 -29 -14 -64 -11 -77 2 -13 -1 -23 -7 -23 -7 0 -25 -26 -41 -57 -16
-32 -31 -61 -33 -64 -1 -3 8 -19 20 -35 l23 -29 5 60 c4 47 9 61 23 63 21 4
23 -23 2 -32 -11 -4 -15 -20 -15 -55 0 -59 7 -81 26 -81 8 0 14 -10 14 -25 0
-14 -4 -25 -10 -25 -5 0 -10 5 -10 10 0 14 -80 120 -90 120 -4 0 -11 -7 -14
-16 -4 -9 -9 -14 -12 -11 -3 3 0 15 6 27 9 16 8 25 -1 36 -10 13 -17 8 -41
-31 -16 -26 -32 -44 -35 -41 -3 3 8 28 24 55 l31 48 -25 32 c-13 17 -20 31
-14 31 5 0 18 -11 28 -24 l19 -24 20 29 c27 41 40 36 14 -6 -15 -25 -19 -39
-12 -52 8 -14 16 -4 45 53 70 140 85 255 46 358 -13 34 -19 62 -14 73 7 15 10
11 16 -17 4 -19 15 -60 23 -90z m-1644 90 c0 -5 -5 -10 -11 -10 -5 0 -7 5 -4
10 3 6 8 10 11 10 2 0 4 -4 4 -10z m1090 -10 c0 -5 -2 -10 -4 -10 -3 0 -8 5
-11 10 -3 6 -1 10 4 10 6 0 11 -4 11 -10z m70 -10 c0 -5 -4 -10 -10 -10 -5 0
-10 5 -10 10 0 6 5 10 10 10 6 0 10 -4 10 -10z m-1230 -40 c0 -5 -2 -10 -4
-10 -3 0 -8 5 -11 10 -3 6 -1 10 4 10 6 0 11 -4 11 -10z m25 0 c3 -5 1 -10 -4
-10 -6 0 -11 5 -11 10 0 6 2 10 4 10 3 0 8 -4 11 -10z m1180 -50 c3 -5 1 -10
-4 -10 -6 0 -11 5 -11 10 0 6 2 10 4 10 3 0 8 -4 11 -10z m-1155 -20 c0 -5 -2
-10 -4 -10 -3 0 -8 5 -11 10 -3 6 -1 10 4 10 6 0 11 -4 11 -10z m1130 0 c0 -5
-5 -10 -11 -10 -5 0 -7 5 -4 10 3 6 8 10 11 10 2 0 4 -4 4 -10z m50 -20 c0 -5
-2 -10 -4 -10 -3 0 -8 5 -11 10 -3 6 -1 10 4 10 6 0 11 -4 11 -10z m-1210 -20
c0 -5 -2 -10 -4 -10 -3 0 -8 5 -11 10 -3 6 -1 10 4 10 6 0 11 -4 11 -10z
m1160 0 c0 -5 -5 -10 -11 -10 -5 0 -7 5 -4 10 3 6 8 10 11 10 2 0 4 -4 4 -10z
m30 0 c0 -5 -4 -10 -10 -10 -5 0 -10 5 -10 10 0 6 5 10 10 10 6 0 10 -4 10
-10z m346 -45 c-25 -18 -19 -25 20 -25 24 0 34 -4 31 -12 -2 -8 -21 -13 -46
-12 -42 1 -49 -4 -30 -23 6 -6 8 -16 4 -23 -4 -7 -15 -2 -33 15 -25 25 -25 26
-9 60 11 22 24 35 36 35 11 0 23 5 27 12 6 9 9 9 12 -2 3 -7 -3 -19 -12 -25z
m-1506 5 c0 -5 -5 -10 -11 -10 -5 0 -7 5 -4 10 3 6 8 10 11 10 2 0 4 -4 4 -10z
m1130 0 c0 -5 -4 -10 -10 -10 -5 0 -10 5 -10 10 0 6 5 10 10 10 6 0 10 -4 10
-10z m50 -30 c0 -5 -2 -10 -4 -10 -3 0 -8 5 -11 10 -3 6 -1 10 4 10 6 0 11 -4
11 -10z m-1205 -9 c3 -5 1 -12 -5 -16 -5 -3 -10 1 -10 9 0 18 6 21 15 7z
m1145 -11 c0 -5 -4 -10 -10 -10 -5 0 -10 5 -10 10 0 6 5 10 10 10 6 0 10 -4
10 -10z m-1617 -40 c3 -11 1 -20 -4 -20 -5 0 -9 4 -9 9 0 5 -3 17 -7 27 -4 11
-3 15 4 11 6 -4 13 -16 16 -27z m442 20 c3 -5 1 -10 -4 -10 -6 0 -11 5 -11 10
0 6 2 10 4 10 3 0 8 -4 11 -10z m1232 -12 c-3 -8 -6 -5 -6 6 -1 11 2 17 5 13
3 -3 4 -12 1 -19z m-1187 8 c0 -11 -19 -15 -25 -6 -3 5 1 10 9 10 9 0 16 -2
16 -4z m1633 -24 c-3 -12 -9 -19 -14 -16 -5 3 -4 14 2 25 13 26 20 21 12 -9z
m-473 14 c0 -3 -4 -8 -10 -11 -5 -3 -10 -1 -10 4 0 6 5 11 10 11 6 0 10 -2 10
-4z m-1170 -30 c0 -3 -4 -8 -10 -11 -5 -3 -10 -1 -10 4 0 6 5 11 10 11 6 0 10
-2 10 -4z m1175 -6 c3 -5 1 -10 -4 -10 -6 0 -11 5 -11 10 0 6 2 10 4 10 3 0 8
-4 11 -10z m-1155 -20 c0 -5 -2 -10 -4 -10 -3 0 -8 5 -11 10 -3 6 -1 10 4 10
6 0 11 -4 11 -10z m35 0 c3 -5 1 -10 -4 -10 -6 0 -11 5 -11 10 0 6 2 10 4 10
3 0 8 -4 11 -10z m1095 0 c0 -5 -4 -10 -10 -10 -5 0 -10 5 -10 10 0 6 5 10 10
10 6 0 10 -4 10 -10z m-1180 -24 c0 -3 -4 -8 -10 -11 -5 -3 -10 -1 -10 4 0 6
5 11 10 11 6 0 10 -2 10 -4z m30 -6 c0 -5 -4 -10 -10 -10 -5 0 -10 5 -10 10 0
6 5 10 10 10 6 0 10 -4 10 -10z m1170 -10 c0 -5 -2 -10 -4 -10 -3 0 -8 5 -11
10 -3 6 -1 10 4 10 6 0 11 -4 11 -10z m-1130 -10 c0 -5 -2 -10 -4 -10 -3 0 -8
5 -11 10 -3 6 -1 10 4 10 6 0 11 -4 11 -10z m1090 0 c0 -5 -4 -10 -10 -10 -5
0 -10 5 -10 10 0 6 5 10 10 10 6 0 10 -4 10 -10z m-1160 -14 c0 -3 -4 -8 -10
-11 -5 -3 -10 -1 -10 4 0 6 5 11 10 11 6 0 10 -2 10 -4z m-208 -53 c14 -6 18
-12 11 -16 -16 -10 -43 20 -42 46 2 22 2 22 6 1 2 -12 14 -26 25 -31z m233 37
c3 -5 1 -10 -4 -10 -6 0 -11 5 -11 10 0 6 2 10 4 10 3 0 8 -4 11 -10z m65 -6
c0 -8 -5 -12 -10 -9 -6 4 -8 11 -5 16 9 14 15 11 15 -7z m35 6 c3 -5 1 -10 -4
-10 -6 0 -11 5 -11 10 0 6 2 10 4 10 3 0 8 -4 11 -10z m-65 -10 c0 -5 -4 -10
-10 -10 -5 0 -10 5 -10 10 0 6 5 10 10 10 6 0 10 -4 10 -10z m1040 0 c0 -5 -2
-10 -4 -10 -3 0 -8 5 -11 10 -3 6 -1 10 4 10 6 0 11 -4 11 -10z m40 0 c0 -5
-4 -10 -10 -10 -5 0 -10 5 -10 10 0 6 5 10 10 10 6 0 10 -4 10 -10z m70 6 c0
-3 -4 -8 -10 -11 -5 -3 -10 -1 -10 4 0 6 5 11 10 11 6 0 10 -2 10 -4z m243
-13 c-10 -28 -24 -43 -41 -43 -12 0 -11 4 6 16 12 8 22 22 22 30 0 8 4 14 10
14 5 0 7 -8 3 -17z m-1383 -23 c0 -5 -4 -10 -10 -10 -5 0 -10 5 -10 10 0 6 5
10 10 10 6 0 10 -4 10 -10z m50 6 c0 -3 -4 -8 -10 -11 -5 -3 -10 -1 -10 4 0 6
5 11 10 11 6 0 10 -2 10 -4z m30 -6 c0 -5 -4 -10 -10 -10 -5 0 -10 5 -10 10 0
6 5 10 10 10 6 0 10 -4 10 -10z m930 0 c0 -5 -4 -10 -10 -10 -5 0 -10 5 -10
10 0 6 5 10 10 10 6 0 10 -4 10 -10z m40 0 c0 -5 -4 -10 -10 -10 -5 0 -10 5
-10 10 0 6 5 10 10 10 6 0 10 -4 10 -10z m85 0 c3 -5 1 -10 -4 -10 -6 0 -11 5
-11 10 0 6 2 10 4 10 3 0 8 -4 11 -10z m-45 -10 c0 -5 -2 -10 -4 -10 -3 0 -8
5 -11 10 -3 6 -1 10 4 10 6 0 11 -4 11 -10z m-1065 -19 c3 -5 1 -12 -5 -16 -5
-3 -10 1 -10 9 0 18 6 21 15 7z m960 -1 c3 -5 1 -10 -4 -10 -6 0 -11 5 -11 10
0 6 2 10 4 10 3 0 8 -4 11 -10z m-1015 -10 c0 -5 -4 -10 -10 -10 -5 0 -10 5
-10 10 0 6 5 10 10 10 6 0 10 -4 10 -10z m100 0 c0 -5 -4 -10 -10 -10 -5 0
-10 5 -10 10 0 6 5 10 10 10 6 0 10 -4 10 -10z m950 0 c0 -5 -4 -10 -10 -10
-5 0 -10 5 -10 10 0 6 5 10 10 10 6 0 10 -4 10 -10z m50 6 c0 -3 -4 -8 -10
-11 -5 -3 -10 -1 -10 4 0 6 5 11 10 11 6 0 10 -2 10 -4z m-1070 -26 c0 -5 -2
-10 -4 -10 -3 0 -8 5 -11 10 -3 6 -1 10 4 10 6 0 11 -4 11 -10z m96 -17 c-10
-10 -19 5 -10 18 6 11 8 11 12 0 2 -7 1 -15 -2 -18z m859 17 c3 -5 1 -10 -4
-10 -6 0 -11 5 -11 10 0 6 2 10 4 10 3 0 8 -4 11 -10z m135 0 c0 -5 -4 -10
-10 -10 -5 0 -10 5 -10 10 0 6 5 10 10 10 6 0 10 -4 10 -10z m-1040 -10 c0 -5
-4 -10 -10 -10 -5 0 -10 5 -10 10 0 6 5 10 10 10 6 0 10 -4 10 -10z m945 0 c3
-5 1 -10 -4 -10 -6 0 -11 5 -11 10 0 6 2 10 4 10 3 0 8 -4 11 -10z m45 -4 c0
-3 -4 -8 -10 -11 -5 -3 -10 -1 -10 4 0 6 5 11 10 11 6 0 10 -2 10 -4z m-1025
-16 c3 -5 -1 -10 -9 -10 -9 0 -16 5 -16 10 0 6 4 10 9 10 6 0 13 -4 16 -10z
m155 0 c0 -5 -5 -10 -11 -10 -5 0 -7 5 -4 10 3 6 8 10 11 10 2 0 4 -4 4 -10z
m910 0 c0 -5 -5 -10 -11 -10 -5 0 -7 5 -4 10 3 6 8 10 11 10 2 0 4 -4 4 -10z
m-1000 -10 c0 -5 -4 -10 -10 -10 -5 0 -10 5 -10 10 0 6 5 10 10 10 6 0 10 -4
10 -10z m1498 -15 c38 -32 46 -65 28 -110 -29 -70 -128 -84 -185 -27 -14 14
-37 26 -51 26 -15 1 -25 7 -25 15 0 22 23 25 28 4 3 -13 9 -8 23 22 l19 40 3
-42 c2 -31 10 -48 29 -63 59 -46 147 -7 147 65 0 56 -59 96 -92 63 -19 -19
-14 -38 11 -35 27 3 31 -26 4 -31 -44 -9 -62 43 -27 78 27 27 52 25 88 -5z
m-1448 5 c0 -5 -4 -10 -10 -10 -5 0 -10 5 -10 10 0 6 5 10 10 10 6 0 10 -4 10
-10z m830 0 c0 -5 -5 -10 -11 -10 -5 0 -7 5 -4 10 3 6 8 10 11 10 2 0 4 -4 4
-10z m-960 -10 c0 -5 -5 -10 -11 -10 -5 0 -7 5 -4 10 3 6 8 10 11 10 2 0 4 -4
4 -10z m50 4 c0 -7 -27 -34 -34 -34 -4 0 -1 9 6 20 12 19 28 27 28 14z m990
-4 c0 -5 -5 -10 -11 -10 -5 0 -7 5 -4 10 3 6 8 10 11 10 2 0 4 -4 4 -10z
m-1510 -16 c0 -8 -4 -12 -10 -9 -5 3 -10 10 -10 16 0 5 5 9 10 9 6 0 10 -7 10
-16z m624 7 c3 -4 -3 -16 -14 -26 -19 -17 -20 -17 -20 -1 0 9 5 14 10 11 6 -3
10 1 10 9 0 18 6 21 14 7z m-74 -11 c0 -5 -5 -10 -11 -10 -5 0 -7 5 -4 10 3 6
8 10 11 10 2 0 4 -4 4 -10z m30 0 c0 -5 -4 -10 -10 -10 -5 0 -10 5 -10 10 0 6
5 10 10 10 6 0 10 -4 10 -10z m820 0 c0 -5 -2 -10 -4 -10 -3 0 -8 5 -11 10 -3
6 -1 10 4 10 6 0 11 -4 11 -10z m50 0 c0 -5 -4 -10 -10 -10 -5 0 -10 5 -10 10
0 6 5 10 10 10 6 0 10 -4 10 -10z m580 0 c0 -5 -4 -10 -10 -10 -5 0 -10 5 -10
10 0 6 5 10 10 10 6 0 10 -4 10 -10z m-1313 -15 c0 -8 -4 -12 -9 -9 -4 3 -8 0
-8 -5 0 -6 -5 -11 -11 -11 -8 0 -9 4 0 13 6 8 8 17 4 20 -3 4 0 7 9 7 8 0 15
-7 15 -15z m603 5 c0 -5 -4 -10 -10 -10 -5 0 -10 5 -10 10 0 6 5 10 10 10 6 0
10 -4 10 -10z m-660 -10 c0 -5 -2 -10 -4 -10 -3 0 -8 5 -11 10 -3 6 -1 10 4
10 6 0 11 -4 11 -10z m710 0 c0 -5 -4 -10 -10 -10 -5 0 -10 5 -10 10 0 6 5 10
10 10 6 0 10 -4 10 -10z m210 0 c0 -5 -2 -10 -4 -10 -3 0 -8 5 -11 10 -3 6 -1
10 4 10 6 0 11 -4 11 -10z m-1596 -21 c-8 -14 -24 -10 -24 6 0 9 6 12 15 9 8
-4 12 -10 9 -15z m596 1 c0 -5 -4 -10 -10 -10 -5 0 -10 5 -10 10 0 6 5 10 10
10 6 0 10 -4 10 -10z m870 0 c0 -5 -4 -10 -10 -10 -5 0 -10 5 -10 10 0 6 5 10
10 10 6 0 10 -4 10 -10z m600 0 c0 -5 -4 -10 -10 -10 -5 0 -10 5 -10 10 0 6 5
10 10 10 6 0 10 -4 10 -10z m-1420 -10 c0 -5 -4 -10 -10 -10 -5 0 -10 5 -10
10 0 6 5 10 10 10 6 0 10 -4 10 -10z m40 -6 c0 -8 -5 -12 -10 -9 -6 4 -8 11
-5 16 9 14 15 11 15 -7z m50 0 c0 -8 -5 -12 -10 -9 -6 4 -8 11 -5 16 9 14 15
11 15 -7z m70 6 c0 -5 -11 -12 -25 -16 -14 -3 -25 -11 -25 -17 0 -6 -2 -8 -5
-5 -10 10 8 39 21 34 8 -3 14 -1 14 4 0 6 5 10 10 10 6 0 10 -4 10 -10z m610
0 c0 -5 -4 -10 -10 -10 -5 0 -10 5 -10 10 0 6 5 10 10 10 6 0 10 -4 10 -10z
m-1305 -10 c3 -5 3 -15 -1 -21 -6 -11 -23 6 -24 24 0 10 18 9 25 -3z m1175 0
c0 -5 -5 -10 -11 -10 -5 0 -7 5 -4 10 3 6 8 10 11 10 2 0 4 -4 4 -10z m40 0
c0 -5 -4 -10 -10 -10 -5 0 -10 5 -10 10 0 6 5 10 10 10 6 0 10 -4 10 -10z m50
0 c0 -5 -4 -10 -10 -10 -5 0 -10 5 -10 10 0 6 5 10 10 10 6 0 10 -4 10 -10z
m-1358 -22 c-6 -6 -15 -8 -19 -4 -4 4 -1 11 7 16 19 12 27 3 12 -12z m1938 13
c0 -12 -20 -25 -27 -18 -7 7 6 27 18 27 5 0 9 -4 9 -9z m-1886 -33 c-9 -14
-23 2 -17 18 4 12 8 13 14 3 4 -7 5 -17 3 -21z m646 22 c0 -5 -4 -10 -10 -10
-5 0 -10 5 -10 10 0 6 5 10 10 10 6 0 10 -4 10 -10z m460 6 c0 -3 -4 -8 -10
-11 -5 -3 -10 -1 -10 4 0 6 5 11 10 11 6 0 10 -2 10 -4z m270 0 c0 -3 -4 -8
-10 -11 -5 -3 -10 -1 -10 4 0 6 5 11 10 11 6 0 10 -2 10 -4z m595 -5 c3 -5 1
-12 -4 -15 -5 -3 -11 1 -15 9 -6 16 9 21 19 6z m-1108 -7 c-3 -3 -12 -4 -19
-1 -8 3 -5 6 6 6 11 1 17 -2 13 -5z m203 2 c0 -11 -19 -15 -25 -6 -3 5 1 10 9
10 9 0 16 -2 16 -4z m860 -11 c0 -8 -7 -15 -15 -15 -16 0 -20 12 -8 23 11 12
23 8 23 -8z m-1664 -49 c21 -14 44 -26 50 -26 6 0 17 -7 24 -15 9 -10 9 -15 1
-15 -6 0 -11 -5 -11 -12 0 -6 7 -5 18 5 17 15 20 15 38 1 18 -14 18 -15 -4 -9
-19 6 -23 4 -20 -12 5 -26 43 -28 74 -4 82 64 215 44 292 -43 29 -34 51 -49
37 -26 -12 19 26 78 61 95 37 17 67 13 97 -13 21 -19 22 -40 0 -64 -20 -23
-49 -23 -62 0 -9 15 -12 15 -21 2 -15 -23 -12 -67 9 -108 23 -45 88 -122 103
-122 7 0 30 20 54 44 46 49 80 131 70 172 l-7 25 -26 -21 c-23 -18 -29 -19
-47 -7 -52 35 -20 97 49 97 47 0 88 -34 100 -82 l7 -26 41 40 c23 23 56 47 74
54 66 28 188 11 223 -30 7 -9 18 -16 24 -16 21 0 49 26 42 39 -6 9 -11 9 -22
0 -10 -9 -14 -9 -14 0 0 17 28 25 44 12 7 -6 15 -9 18 -6 3 3 11 -1 18 -10 14
-17 7 -45 -12 -45 -9 0 -9 3 2 10 8 5 11 12 8 16 -7 6 -15 4 -54 -19 l-20 -12
22 -50 c19 -42 23 -47 29 -30 38 100 47 107 103 77 l39 -20 -5 24 c-2 14 -20
36 -39 48 -19 13 -31 26 -26 29 23 13 75 18 88 7 13 -10 75 -23 75 -15 0 2
-19 12 -43 24 -39 19 -45 20 -91 6 -27 -8 -54 -19 -60 -24 -11 -8 -46 -11 -46
-4 0 10 30 33 43 33 8 0 22 10 33 22 10 12 13 18 7 14 -7 -4 -13 -3 -13 2 0 6
10 10 23 11 12 0 38 3 58 7 26 4 47 0 77 -15 46 -23 56 -45 47 -100 -7 -41
-46 -94 -53 -72 -3 8 -9 5 -19 -8 -10 -16 -25 -21 -57 -21 -23 0 -47 5 -54 12
-15 15 -47 -13 -73 -64 -10 -20 -22 -38 -27 -40 -4 -1 -18 -20 -31 -41 -13
-21 -36 -44 -52 -52 -16 -9 -30 -20 -30 -25 -1 -6 -2 -16 -3 -22 0 -7 -8 -13
-16 -13 -10 0 -14 8 -12 23 3 31 -22 24 -26 -7 -4 -26 -26 -23 -28 5 -3 38 -5
39 -24 16 -19 -23 -45 -22 -37 1 2 7 -3 20 -11 30 -12 13 -13 20 -5 25 8 5 9
13 3 22 -13 20 -13 70 0 70 6 0 10 -16 10 -35 0 -105 156 -127 218 -32 15 23
31 45 36 49 10 7 4 24 -34 98 -9 19 -36 49 -60 65 -36 26 -50 30 -105 29 -51
0 -71 -6 -103 -27 -50 -32 -100 -94 -142 -175 -34 -64 -128 -162 -157 -162
-18 0 -133 115 -150 150 -6 14 -19 42 -29 64 -29 64 -105 132 -163 146 -112
27 -212 -28 -238 -130 -3 -14 -11 -28 -17 -32 -8 -6 -8 -10 0 -15 6 -5 18 -22
27 -40 36 -69 117 -94 187 -58 28 15 56 76 44 97 -3 4 0 8 6 8 11 0 8 -90 -4
-122 -3 -10 -8 -25 -11 -33 -6 -21 -23 -19 -30 5 -7 22 -30 27 -41 8 -4 -7 -3
-8 4 -4 8 5 12 -1 12 -17 0 -14 -6 -24 -15 -24 -9 0 -15 10 -15 24 0 13 -6 23
-14 23 -9 0 -12 -8 -8 -25 6 -31 -20 -31 -29 0 -3 11 -11 19 -17 17 -7 -1 -11
2 -10 6 5 16 -57 58 -79 54 -24 -4 -30 -16 -13 -27 13 -8 13 -52 1 -60 -5 -3
-12 -1 -16 5 -4 6 -10 8 -15 5 -4 -3 -8 1 -7 8 2 50 -3 57 -28 47 -16 -6 -26
-6 -31 1 -7 11 23 38 44 39 8 0 10 8 6 24 -3 14 -1 33 5 43 9 15 10 12 11 -18
0 -33 3 -37 30 -41 26 -4 28 -2 17 11 -6 9 -15 18 -18 21 -3 3 -12 16 -19 30
-7 14 -24 39 -38 56 -23 29 -27 30 -50 18 -14 -7 -29 -11 -34 -8 -5 3 -6 -6
-2 -20 4 -17 0 -35 -10 -51 -12 -18 -13 -30 -6 -50 6 -15 10 -40 10 -57 l0
-31 -25 23 c-13 12 -22 26 -20 30 2 4 -19 6 -48 6 -41 -1 -52 2 -55 17 -2 10
3 17 12 17 9 0 16 -7 16 -15 0 -8 9 -15 20 -15 17 0 18 3 8 24 -9 21 -6 32 17
71 15 26 29 44 32 41 3 -3 -4 -20 -16 -39 -22 -36 -27 -72 -12 -81 5 -3 11 4
14 15 4 13 10 18 18 13 8 -4 10 -3 5 5 -4 6 -12 8 -18 5 -13 -8 10 36 29 54
19 20 16 31 -12 38 -14 3 -25 10 -25 15 0 5 -8 9 -18 9 -30 0 -50 31 -57 85
-8 58 6 77 71 100 44 15 76 8 130 -29z m14 18 c0 -14 -3 -14 -15 -4 -8 7 -15
14 -15 16 0 2 7 4 15 4 8 0 15 -7 15 -16z m165 -14 c4 -6 -8 -10 -29 -10 -20
0 -36 5 -36 10 0 6 13 10 29 10 17 0 33 -4 36 -10z m-395 -26 c0 -13 -46 -25
-97 -26 -18 0 -30 -5 -27 -10 3 -5 13 -7 21 -4 8 3 11 1 8 -4 -11 -18 25 -23
39 -5 15 21 49 16 54 -6 4 -22 -65 -32 -94 -14 -11 7 -26 10 -33 6 -8 -6 -2
-10 17 -14 31 -6 49 -34 33 -50 -12 -12 -44 -1 -36 13 4 6 11 8 16 5 5 -4 9
-1 9 4 0 6 -9 11 -20 11 -20 0 -30 -16 -44 -74 -6 -23 -4 -27 8 -23 9 4 16 2
16 -2 0 -5 -6 -11 -14 -14 -9 -4 -12 -14 -9 -26 3 -11 11 -17 19 -14 7 2 25
-7 39 -21 19 -19 24 -32 19 -50 -7 -29 9 -42 26 -21 10 12 24 14 59 9 25 -4
51 -11 58 -16 7 -5 21 -7 33 -3 11 4 20 2 20 -4 0 -6 -8 -11 -17 -11 -15 0
-14 -2 3 -15 15 -12 16 -14 3 -15 -9 0 -18 2 -21 6 -12 12 -157 9 -174 -3 -64
-47 -148 49 -99 113 20 27 19 64 -2 64 -16 1 -16 2 -3 13 19 14 46 119 36 136
-4 6 -14 11 -23 11 -11 0 -14 -7 -11 -25 4 -20 3 -23 -8 -14 -8 6 -14 17 -14
25 0 19 33 35 51 23 22 -14 33 -11 19 6 -7 8 -19 15 -26 15 -17 0 -18 27 -1
33 6 2 47 4 90 4 53 -1 77 -4 77 -13z m1976 2 c21 -16 13 -30 -19 -32 -12 -1
-31 -5 -41 -9 -13 -6 -17 -5 -12 3 3 6 2 13 -4 17 -5 3 -10 1 -10 -5 0 -8 -7
-9 -17 -5 -18 7 -40 13 -55 14 -5 1 -8 6 -8 12 0 8 14 10 43 7 23 -3 53 -2 67
2 36 11 34 11 56 -4z m-467 -12 c2 -2 -266 -4 -597 -4 -423 0 -602 3 -602 11
0 7 173 8 598 4 328 -4 599 -9 601 -11z m-845 -40 c3 -8 2 -12 -4 -9 -6 3 -10
10 -10 16 0 14 7 11 14 -7z m1286 1 c-14 -17 0 -21 17 -4 18 18 55 1 51 -24
-2 -11 -10 -23 -18 -25 -13 -5 -13 -3 -1 11 11 14 11 18 -4 23 -30 12 -37 -10
-23 -71 7 -32 19 -60 26 -62 6 -3 12 -9 12 -14 0 -5 -6 -8 -12 -7 -19 4 -22
-47 -4 -62 18 -14 21 -62 6 -89 -5 -10 -23 -24 -39 -30 -24 -11 -35 -10 -63 3
-23 10 -58 14 -115 13 -45 -2 -77 0 -71 4 14 9 -22 28 -39 22 -17 -6 -17 37
-1 72 10 21 9 31 -5 55 -19 32 -22 60 -7 60 6 0 14 -8 17 -17 4 -10 15 -27 25
-37 10 -11 18 -25 18 -30 0 -6 -5 -4 -11 4 -9 13 -10 13 -6 -1 3 -9 0 -23 -6
-30 -10 -11 -9 -11 6 0 15 12 17 11 17 -5 0 -16 2 -16 16 4 15 21 14 26 -11
67 -14 25 -22 45 -17 45 11 0 52 -73 52 -92 0 -19 -44 -60 -55 -51 -4 5 -5 2
-1 -4 4 -7 2 -13 -3 -13 -20 0 -11 -18 11 -23 12 -4 29 0 38 7 8 7 34 16 58
19 35 4 45 2 55 -13 15 -26 41 -6 27 20 -12 23 22 70 51 70 28 0 35 28 13 46
-18 15 -18 15 -1 10 16 -5 18 -2 12 27 -12 57 -44 93 -60 67 -3 -5 1 -10 9
-10 18 0 21 -16 5 -26 -6 -3 -18 1 -27 10 -13 13 -14 18 -4 28 10 10 3 15 -35
25 l-48 12 46 -3 c33 -2 53 2 70 15 29 22 46 25 29 4z m-1263 -17 c-3 -8 -6
-5 -6 6 -1 11 2 17 5 13 3 -3 4 -12 1 -19z m33 8 c0 -8 -4 -18 -10 -21 -5 -3
-10 3 -10 14 0 12 5 21 10 21 6 0 10 -6 10 -14z m390 -8 c0 -19 -2 -20 -10 -8
-13 19 -13 30 0 30 6 0 10 -10 10 -22z m24 7 c-4 -8 -8 -15 -10 -15 -2 0 -4 7
-4 15 0 8 4 15 10 15 5 0 7 -7 4 -15z m36 11 c0 -3 -4 -8 -10 -11 -5 -3 -10
-1 -10 4 0 6 5 11 10 11 6 0 10 -2 10 -4z m688 -3 c-10 -2 -26 -2 -35 0 -10 3
-2 5 17 5 19 0 27 -2 18 -5z m-1285 -39 c18 -9 40 -23 50 -32 14 -12 17 -12
17 -1 0 28 31 -18 90 -136 33 -66 60 -116 60 -111 0 5 7 3 15 -4 12 -10 13
-16 4 -26 -15 -18 -28 -9 -45 30 -13 31 -13 31 -14 5 0 -15 -6 -32 -14 -38
-17 -14 -73 -11 -73 4 1 46 -5 65 -18 65 -9 0 -20 -10 -25 -23 -8 -21 -9 -21
-9 5 -1 29 31 47 52 30 7 -6 23 -12 37 -14 24 -3 43 -38 21 -38 -6 0 -11 7
-11 15 0 20 -19 19 -27 -1 -3 -8 1 -22 9 -30 13 -14 17 -14 32 1 21 22 20 37
-4 68 -17 22 -31 27 -78 29 -53 4 -54 5 -24 12 18 5 35 13 39 19 3 6 1 7 -5 3
-8 -5 -10 -2 -6 9 8 20 29 13 28 -9 -1 -9 4 -16 12 -16 8 0 23 -9 34 -20 11
-11 20 -15 20 -8 0 21 -86 95 -119 101 -33 7 -42 23 -14 29 11 2 -6 17 -46 42
-45 27 -70 37 -91 34 -20 -3 -27 -1 -23 9 7 19 87 17 126 -3z m785 7 c9 -5 0
-10 -28 -14 -22 -3 -55 -16 -73 -29 -18 -14 -41 -28 -52 -33 -18 -7 -19 -8 -2
-12 25 -6 16 -27 -13 -31 -32 -5 -88 -49 -106 -83 l-14 -28 35 22 c19 12 34
30 35 40 0 21 30 23 30 1 0 -9 -5 -13 -12 -9 -7 4 -4 -1 6 -9 11 -9 31 -16 45
-16 13 0 21 -3 17 -7 -4 -4 -27 -6 -52 -4 -51 3 -88 -16 -97 -49 -5 -20 -4
-21 12 -6 10 9 25 16 34 16 11 0 15 6 11 18 -4 12 -3 13 3 4 5 -7 17 -10 25
-7 20 8 49 -21 41 -42 -5 -13 -8 -12 -15 6 -10 28 -32 22 -36 -10 -6 -35 -22
-50 -51 -47 -20 2 -29 12 -38 38 -9 25 -12 29 -12 13 -1 -25 -28 -56 -42 -48
-15 10 -10 35 7 35 8 0 20 13 25 29 5 15 21 48 35 72 14 24 36 67 49 96 23 50
45 75 45 53 0 -6 13 -2 29 9 53 38 127 53 159 32z m-432 -166 c13 -20 13 -24
-3 -44 l-18 -23 -19 21 c-17 18 -17 25 -7 45 7 13 14 50 16 82 3 90 9 97 12
15 2 -42 10 -83 19 -96z m-887 113 c6 -16 4 -28 -5 -39 -8 -9 -12 -23 -8 -32
8 -21 -30 -57 -60 -57 -35 0 -42 18 -17 43 16 17 23 19 33 9 9 -9 8 -12 -6
-12 -9 0 -14 -5 -11 -10 5 -8 11 -8 19 -1 7 6 15 8 18 5 3 -2 8 2 12 11 3 10
1 15 -7 13 -17 -3 -54 19 -61 37 -8 22 24 53 57 54 20 1 30 -5 36 -21z m425
13 c7 -11 -3 -41 -14 -41 -11 0 -21 30 -14 41 3 5 9 9 14 9 5 0 11 -4 14 -9z
m909 -33 c-10 -21 -12 -21 -18 -5 -10 25 2 54 17 39 8 -8 8 -18 1 -34z m157
35 c-1 -18 -18 -35 -24 -24 -4 6 -2 11 4 11 6 0 8 5 5 10 -3 6 -1 10 4 10 6 0
11 -3 11 -7z m315 -16 c17 -14 24 -28 20 -38 -7 -19 -52 -42 -66 -34 -5 4 -9
2 -9 -3 0 -17 12 -21 36 -10 17 8 27 8 39 -2 23 -19 18 -37 -12 -43 -34 -6
-73 21 -71 48 0 11 -2 32 -7 48 -8 29 7 57 31 57 7 0 25 -10 39 -23z m-1426
-36 c-3 -8 -10 -8 -23 2 -12 8 -16 19 -11 26 6 10 11 10 22 -2 9 -8 14 -20 12
-26z m98 22 c4 -11 -26 -27 -35 -19 -2 3 -2 12 2 21 6 18 27 16 33 -2z m811
-16 c-3 -14 -5 -14 -23 -1 -17 13 -18 16 -5 24 18 11 33 -2 28 -23z m-448 13
c0 -8 -51 -40 -65 -40 -3 0 -5 6 -5 14 0 7 15 18 33 24 17 5 33 10 35 11 1 1
2 -3 2 -9z m552 -5 c0 -14 -29 -31 -38 -22 -9 8 16 39 28 35 5 -2 10 -8 10
-13z m-1491 -22 c8 -20 6 -30 -5 -42 -17 -16 -23 -14 -26 9 -8 58 13 81 31 33z
m1046 12 c12 -4 14 -8 5 -17 -9 -9 -17 -7 -35 10 -23 24 -23 24 30 7z m919
-21 c8 -32 -9 -52 -30 -35 -12 10 -13 18 -4 37 14 31 26 31 34 -2z m-1676 12
c0 -6 -82 -86 -87 -86 -12 0 67 88 80 89 4 1 7 -1 7 -3z m1435 -85 c-7 -6 -85
70 -85 83 0 6 20 -10 45 -34 24 -24 42 -46 40 -49z m-1255 59 c0 -11 -39 -24
-47 -16 -3 3 -3 12 0 20 6 15 47 11 47 -4z m56 9 c10 -17 -13 -36 -27 -22 -12
12 -4 33 11 33 5 0 12 -5 16 -11z m72 -12 c4 -19 -15 -22 -38 -7 -13 9 -13 11
0 20 19 13 34 8 38 -13z m842 -3 c0 -17 -26 -19 -36 -3 -7 12 15 31 28 23 4
-3 8 -12 8 -20z m-1138 -18 c-3 -26 -8 -33 -22 -29 -10 3 -21 0 -24 -6 -4 -6
-15 -11 -24 -11 -12 1 -9 5 9 15 14 8 34 26 43 40 9 14 18 25 19 25 2 0 1 -15
-1 -34z m638 26 c0 -17 -38 -44 -45 -32 -4 6 1 18 11 25 22 16 34 19 34 7z
m90 -36 c-8 -8 -15 -6 -26 8 -22 30 -17 38 12 20 18 -13 22 -20 14 -28z m344
35 c3 -5 -1 -12 -10 -15 -25 -10 -34 -7 -34 9 0 16 35 21 44 6z m136 -6 c0
-16 -9 -19 -34 -9 -20 8 -11 24 15 24 10 0 19 -7 19 -15z m183 -63 c-1 -2 -10
1 -21 7 -13 7 -22 7 -29 0 -8 -8 -12 1 -14 28 l-4 39 35 -35 c19 -20 34 -37
33 -39z m-73 17 c0 -21 8 -37 25 -51 30 -23 24 -41 -11 -32 -19 5 -24 2 -24
-13 0 -11 -9 -28 -21 -39 l-21 -19 3 44 c3 35 0 45 -15 51 -16 5 -16 8 -3 18
8 7 21 10 29 7 18 -7 31 20 23 46 -4 11 -2 19 4 19 6 0 11 -14 11 -31z m-1210
8 c0 -44 105 -91 150 -67 11 6 20 7 20 1 0 -24 -86 -29 -128 -7 -24 12 -36 28
-60 79 -2 4 2 7 7 7 6 0 11 -6 11 -13z m70 -1 c0 -7 -6 -19 -14 -25 -19 -16
-32 5 -16 24 16 19 30 19 30 1z m84 8 c20 -8 21 -34 1 -34 -8 0 -15 2 -15 4 0
2 -3 11 -6 20 -7 18 -4 19 20 10z m823 -19 c-7 -16 -37 -21 -37 -5 0 10 32 31
39 25 2 -2 1 -11 -2 -20z m103 -4 c0 -4 -3 -11 -7 -14 -9 -9 -33 12 -33 30 0
11 4 11 20 3 11 -6 20 -14 20 -19z m-966 3 c4 -9 1 -23 -6 -31 -10 -12 -13
-12 -20 1 -9 15 -1 46 12 46 4 0 11 -7 14 -16z m908 -36 c-15 -15 -27 14 -17
40 6 15 8 15 18 -6 7 -16 7 -26 -1 -34z m101 35 c-21 -59 -98 -94 -155 -69
l-33 14 50 -5 c56 -5 113 22 122 58 3 10 9 19 14 19 5 0 6 -8 2 -17z m-1276
-43 c-15 -17 -24 -37 -21 -45 4 -8 1 -15 -5 -15 -23 0 -11 54 17 76 36 30 41
22 9 -16z m1453 -32 c0 -15 -4 -28 -10 -28 -5 0 -7 6 -4 14 3 7 -8 28 -23 47
l-28 33 33 -19 c24 -14 32 -26 32 -47z m160 43 c0 -19 -18 -31 -46 -31 -8 0
-14 5 -14 10 0 6 9 10 20 10 11 0 19 3 19 8 -3 14 1 22 11 22 6 0 10 -9 10
-19z m-1120 -21 c0 -5 -4 -10 -10 -10 -5 0 -10 5 -10 10 0 6 5 10 10 10 6 0
10 -4 10 -10z"/>
<path d="M100 3338 c-11 -12 -20 -29 -20 -38 0 -17 26 -58 32 -50 2 3 14 18
28 33 21 24 22 30 10 38 -12 9 -12 10 3 5 27 -9 50 3 36 20 -17 21 -66 17 -89
-8z"/>
<path d="M235 3329 c-4 -6 -5 -13 -2 -15 8 -9 97 7 97 17 0 13 -87 11 -95 -2z"/>
<path d="M153 3278 c-28 -30 -29 -38 -3 -38 22 0 34 19 28 45 -2 14 -7 13 -25
-7z"/>
<path d="M130 3046 c0 -10 28 -13 41 -5 10 6 7 9 -13 9 -16 0 -28 -2 -28 -4z"/>
<path d="M790 3316 c0 -2 7 -7 16 -10 8 -3 12 -2 9 4 -6 10 -25 14 -25 6z"/>
<path d="M1109 3302 c-114 -117 -136 -246 -50 -282 43 -17 81 -1 81 35 0 14
-4 25 -10 25 -5 0 -10 -6 -10 -14 0 -14 -21 -26 -46 -26 -20 0 -44 61 -38 95
9 49 52 122 95 159 24 20 45 36 49 36 13 0 99 -98 119 -135 38 -72 19 -155
-35 -155 -21 0 -29 9 -25 33 3 17 -18 5 -25 -15 -4 -15 -1 -25 12 -35 27 -20
60 -16 91 11 59 51 25 175 -75 273 -29 29 -58 53 -65 53 -6 0 -37 -26 -68 -58z"/>
<path d="M550 3133 c-7 -21 -16 -42 -21 -47 -15 -16 -10 -26 9 -19 15 6 15 5
3 -10 -18 -23 1 -22 37 0 15 9 28 18 30 18 1 1 -4 15 -13 31 -8 16 -15 37 -15
47 0 30 -18 18 -30 -20z m25 -43 c1 -16 -1 -17 -13 -8 -9 8 -10 14 -3 16 6 2
8 9 4 15 -3 7 -2 9 2 4 5 -4 9 -16 10 -27z"/>
<path d="M1770 3143 c0 -16 -7 -37 -15 -47 -13 -18 -12 -21 21 -44 20 -13 39
-21 42 -17 4 4 1 10 -5 12 -7 3 -13 9 -13 15 0 6 7 8 15 4 17 -6 20 5 6 20 -5
5 -14 26 -21 47 -14 43 -30 49 -30 10z m26 -62 c-11 -17 -25 -13 -21 7 2 9 4
19 4 22 1 2 6 -1 12 -7 6 -6 8 -16 5 -22z"/>
<path d="M410 3104 c0 -6 5 -15 12 -22 8 -8 8 -15 -3 -28 -8 -10 -9 -15 -4
-12 6 3 25 -5 44 -18 l34 -23 -27 -11 c-35 -13 -38 -13 -70 3 -14 8 -22 18
-18 23 4 4 0 3 -9 -4 -9 -7 -25 -10 -35 -6 -11 3 1 -6 25 -20 42 -25 45 -26
91 -12 26 8 56 20 67 27 18 11 19 15 7 38 -9 16 -22 25 -38 26 -13 0 -36 11
-50 24 -14 14 -26 20 -26 15z"/>
<path d="M1911 3080 c-13 -11 -35 -20 -50 -20 -18 0 -30 -8 -38 -25 -13 -29
-3 -37 77 -65 43 -14 47 -14 88 8 23 13 42 25 42 26 0 9 -67 -9 -78 -21 -8 -8
-21 -12 -29 -9 -8 4 -26 9 -39 12 -13 3 -24 9 -24 13 0 7 62 46 70 44 3 -1 5
12 5 28 0 16 0 29 0 29 0 -1 -11 -10 -24 -20z"/>
<path d="M1785 3010 c-3 -5 -1 -10 4 -10 6 0 11 5 11 10 0 6 -2 10 -4 10 -3 0
-8 -4 -11 -10z"/>
<path d="M1420 3139 c0 -5 5 -7 10 -4 6 3 10 8 10 11 0 2 -4 4 -10 4 -5 0 -10
-5 -10 -11z"/>
<path d="M2165 3346 c-18 -13 -18 -14 3 -20 12 -4 26 -4 32 -1 5 3 10 1 10 -4
0 -6 -5 -11 -11 -11 -5 0 2 -16 17 -36 l28 -35 12 23 c19 33 17 46 -11 73 -27
28 -52 31 -80 11z"/>
<path d="M2172 3269 c3 -24 33 -48 44 -36 8 8 -23 57 -37 57 -6 0 -9 -10 -7
-21z"/>
<path d="M2190 3000 c0 -6 7 -10 15 -10 8 0 15 2 15 4 0 2 -7 6 -15 10 -8 3
-15 1 -15 -4z"/>
<path d="M235 3209 c-10 -15 3 -25 16 -12 7 7 7 13 1 17 -6 3 -14 1 -17 -5z"/>
<path d="M391 2814 c0 -11 3 -14 6 -6 3 7 2 16 -1 19 -3 4 -6 -2 -5 -13z"/>
<path d="M371 2804 c0 -11 3 -14 6 -6 3 7 2 16 -1 19 -3 4 -6 -2 -5 -13z"/>
<path d="M350 2770 c0 -5 5 -10 11 -10 5 0 7 5 4 10 -3 6 -8 10 -11 10 -2 0
-4 -4 -4 -10z"/>
<path d="M540 1745 c0 -19 5 -35 11 -35 6 0 9 8 6 19 -2 10 0 26 5 35 7 12 5
16 -7 16 -11 0 -15 -10 -15 -35z"/>
<path d="M1985 680 c3 -5 8 -10 11 -10 2 0 4 5 4 10 0 6 -5 10 -11 10 -5 0 -7
-4 -4 -10z"/>
<path d="M1971 644 c0 -11 3 -14 6 -6 3 7 2 16 -1 19 -3 4 -6 -2 -5 -13z"/>
<path d="M1051 2834 c-131 -35 -246 -118 -316 -229 -181 -287 -37 -663 293
-765 34 -11 87 -20 118 -21 34 -1 53 -6 51 -13 -3 -7 -29 -10 -68 -9 -44 1
-55 -1 -34 -6 20 -5 28 -12 25 -22 -2 -8 -4 -31 -5 -51 0 -21 -3 -38 -7 -38
-4 0 -22 -15 -40 -34 -18 -18 -49 -38 -69 -45 -43 -14 -144 -73 -178 -104 -44
-40 -110 -137 -130 -192 -53 -142 -47 -273 19 -410 83 -171 245 -280 435 -292
152 -10 291 43 401 152 249 246 177 668 -141 820 -81 39 -140 54 -208 55 -54
0 -64 24 -11 26 28 1 127 -17 169 -31 11 -3 7 2 -10 11 -16 10 -46 19 -65 21
-53 5 -66 11 -52 25 7 7 12 29 12 50 0 39 20 59 67 64 25 3 65 23 46 24 -6 0
-23 -4 -37 -10 -36 -13 -34 7 2 22 123 50 158 72 223 137 176 176 205 431 73
637 -64 102 -157 175 -272 216 -74 26 -217 32 -291 12z m284 -26 c155 -51 251
-146 325 -323 7 -16 15 -73 18 -126 8 -154 -39 -277 -146 -382 -60 -59 -194
-137 -200 -117 -2 6 -19 -6 -38 -27 -44 -50 -43 -30 1 26 38 47 40 64 9 69
-13 2 -31 -13 -57 -48 -20 -27 -42 -50 -48 -50 -11 0 10 32 58 89 25 29 33 33
57 27 25 -6 28 -11 24 -41 -4 -32 -2 -34 17 -29 91 28 261 180 239 215 -4 8
-3 9 4 5 7 -4 12 -5 12 -2 0 2 3 13 7 23 6 16 5 16 -10 4 -15 -12 -17 -12 -11
3 4 10 12 15 20 12 18 -7 44 74 51 164 16 210 -116 415 -318 491 -68 26 -206
36 -279 20 -168 -36 -309 -164 -366 -333 -22 -66 -24 -204 -5 -273 18 -64 53
-134 58 -117 5 13 23 7 23 -9 0 -6 -4 -7 -10 -4 -24 15 -6 -15 40 -67 28 -31
73 -70 100 -87 58 -36 157 -69 217 -74 23 -2 46 -7 50 -11 13 -14 -107 2 -162
20 -217 74 -356 279 -343 507 6 101 27 162 85 249 124 188 360 268 578 196z
m-111 -28 c7 -7 5 -10 -7 -10 -9 0 -17 -4 -17 -10 0 -5 6 -10 14 -10 18 0 30
-31 15 -40 -6 -4 -10 -10 -9 -14 7 -22 -11 -46 -32 -46 -30 0 -48 17 -48 45 0
12 -5 26 -11 32 -8 8 -3 13 20 18 17 3 34 11 38 17 4 8 0 9 -10 5 -10 -4 -23
-9 -30 -12 -8 -3 -13 2 -14 14 -2 29 64 38 91 11z m34 -30 c-2 -17 -5 -15 -14
15 -10 32 -10 35 3 22 8 -8 13 -24 11 -37z m-222 -19 c38 -10 60 -26 79 -60 6
-11 4 -13 -8 -8 -11 4 -17 1 -17 -8 0 -8 -4 -15 -9 -15 -5 0 -11 -9 -14 -21
-8 -29 -41 -21 -45 10 -2 14 -17 37 -33 52 -33 31 -40 74 -11 65 9 -3 35 -10
58 -15z m359 -23 c-4 -14 -17 -30 -30 -36 -16 -7 -22 -17 -19 -30 3 -10 -2
-25 -11 -32 -15 -12 -18 -12 -26 2 -5 8 -22 21 -39 28 -35 14 -33 12 -19 44
16 34 118 75 142 55 4 -3 5 -17 2 -31z m-175 -76 c0 -5 10 -8 21 -8 28 1 58
-39 66 -87 5 -34 2 -42 -31 -76 -28 -28 -34 -40 -23 -44 8 -3 20 -26 27 -52
11 -38 11 -56 1 -96 -7 -27 -13 -73 -13 -102 0 -50 0 -51 -15 -29 -10 14 -16
49 -17 95 -2 54 -8 81 -24 107 -28 45 -28 70 -1 70 11 0 17 5 14 10 -4 6 7 27
23 48 28 35 30 40 19 75 -11 34 -27 50 -27 27 0 -6 -10 -15 -22 -20 -23 -10
-23 -10 2 -7 39 3 38 -29 -3 -100 -9 -15 -17 -19 -27 -13 -8 5 -18 6 -22 4
-13 -8 -35 20 -46 60 -10 34 -9 38 11 46 17 7 18 9 5 9 -10 1 -18 7 -18 14 -1
6 -8 0 -16 -16 -30 -54 16 -147 69 -138 11 2 8 -17 -4 -24 -7 -5 -5 -11 4 -18
13 -11 37 -140 37 -201 0 -21 4 -27 15 -22 8 3 15 1 15 -3 0 -5 -6 -11 -13
-14 -9 -3 -18 -44 -26 -124 -15 -131 -26 -168 -35 -113 -30 188 -32 263 -12
388 7 45 10 82 7 82 -3 0 -13 -11 -23 -24 -15 -21 -17 -39 -20 -166 -1 -25 -3
-39 -5 -33 -4 10 -10 10 -25 2 -19 -10 -20 -9 -12 7 4 11 8 42 7 69 -1 28 -3
71 -4 97 0 26 6 61 14 78 14 27 14 32 2 37 -8 3 -12 9 -9 14 3 6 -1 21 -10 34
-31 47 -11 130 38 154 26 12 106 14 106 3z m250 -1 c0 -17 -18 -21 -24 -6 -3
9 0 15 9 15 8 0 15 -4 15 -9z m-590 -26 c-7 -9 -16 -12 -19 -8 -4 4 -10 11
-15 16 -5 4 3 7 19 7 24 0 26 -2 15 -15z m670 -7 c0 -13 -23 -5 -28 10 -2 7 2
10 12 6 9 -3 16 -11 16 -16z m-603 -25 c-3 -3 -11 -2 -17 2 -9 6 -9 10 1 16
14 8 27 -7 16 -18z m476 -19 c-5 -13 -23 -20 -23 -10 0 2 -3 11 -6 19 -4 12 0
14 15 10 12 -3 17 -11 14 -19z m-413 -2 c0 -15 -11 -21 -27 -15 -12 5 -12 7
-1 14 17 11 28 11 28 1z m493 -13 c-4 -15 -8 -17 -14 -8 -6 11 4 28 18 29 0 0
-1 -9 -4 -21z m87 -30 c0 -4 -7 -9 -15 -13 -9 -3 -15 0 -15 8 0 7 7 13 15 13
8 0 15 -4 15 -8z m-70 -21 c0 -13 -23 -5 -28 10 -2 7 2 10 12 6 9 -3 16 -11
16 -16z m-701 -4 c-6 -7 -17 -10 -25 -7 -23 8 -16 21 11 21 20 0 23 -3 14 -14z
m615 -17 c3 3 6 2 6 -4 0 -20 -26 -21 -39 -1 -11 17 -10 18 7 9 11 -6 22 -7
26 -4z m-560 -46 c18 -11 53 -24 77 -29 l44 -10 -48 1 c-26 0 -52 6 -58 13 -9
11 -49 25 -84 29 -14 2 -65 -27 -65 -37 0 -4 -10 -12 -21 -19 -21 -11 -21 -11
-3 14 43 56 100 70 158 38z m196 3 c0 -14 -3 -14 -15 -4 -8 7 -15 14 -15 16 0
2 7 4 15 4 8 0 15 -7 15 -16z m230 6 c0 -13 -11 -13 -30 0 -12 8 -11 10 8 10
12 0 22 -4 22 -10z m338 -9 c14 -9 11 -10 -15 -11 -17 0 -34 4 -37 9 -10 15
-55 -1 -71 -25 -9 -14 -25 -24 -40 -24 -13 0 -26 -3 -29 -8 -7 -11 -64 -5
-116 11 -53 18 -28 22 35 6 56 -14 139 6 130 30 -3 9 -3 12 1 9 4 -4 16 -1 26
7 22 15 87 12 116 -4z m-608 -54 c-19 -4 -48 -11 -64 -14 -16 -3 -41 -12 -55
-19 -24 -13 -19 -14 59 -15 59 -1 74 -3 50 -8 -19 -4 -71 -6 -115 -4 -44 1
-109 3 -145 4 -41 1 -58 5 -45 9 11 4 54 6 95 4 53 -2 66 -1 45 5 -29 8 -29 9
11 10 23 0 47 8 54 16 7 8 27 15 44 16 17 0 40 4 51 8 11 5 27 6 35 3 10 -4 2
-9 -20 -15z m624 -16 c3 -4 1 -13 -4 -20 -6 -11 -17 -12 -53 -2 -60 15 -118
15 -97 0 12 -8 11 -9 -5 -5 -11 3 -27 1 -35 -4 -11 -7 -8 -10 16 -10 16 0 35
5 41 11 8 8 19 8 40 0 l28 -10 -30 2 c-18 1 -29 -3 -28 -10 2 -11 -54 -15
-177 -13 -43 1 -43 2 -15 11 16 4 48 6 70 4 38 -5 38 -4 10 5 -16 6 -42 8 -57
6 -33 -6 -36 -1 -9 13 13 7 29 7 50 0 25 -9 36 -8 54 3 29 20 113 32 122 18 9
-15 25 -12 19 3 -4 10 3 12 26 9 16 -2 32 -7 34 -11z m-610 -9 c3 -5 -19 -8
-47 -9 -38 0 -45 2 -27 8 35 10 68 11 74 1z m600 -41 c3 -5 -13 -9 -37 -9 -31
0 -37 2 -22 8 27 12 53 12 59 1z m-674 -33 c0 -12 -18 -18 -34 -12 -25 9 -19
22 9 20 14 0 25 -4 25 -8z m-188 -39 c-3 -27 -8 -37 -14 -31 -11 11 -1 72 11
72 3 0 5 -18 3 -41z m25 -63 c-6 -25 -14 -46 -18 -46 -4 0 -17 13 -28 29 -25
35 -39 91 -22 91 6 0 11 -11 11 -24 0 -13 8 -34 18 -46 l18 -22 11 36 c6 20 7
38 2 41 -4 3 -5 13 -2 22 13 34 21 -33 10 -81z m603 83 c0 -14 -29 -17 -40 -4
-8 10 -5 13 15 11 14 0 25 -4 25 -7z m-681 -62 c1 -5 -3 -5 -9 -2 -5 3 -10 16
-9 28 0 21 1 21 9 2 5 -11 9 -24 9 -28z m820 10 c0 12 6 25 13 29 8 5 9 2 5
-9 -3 -10 -2 -17 3 -17 6 0 10 -13 10 -30 0 -16 -3 -30 -7 -30 -27 1 -58 53
-47 78 6 13 9 11 14 -13 6 -23 8 -25 9 -8z m-697 -9 c-7 -7 -12 -20 -12 -30 0
-10 -4 -18 -10 -18 -5 0 -10 6 -10 13 0 17 31 60 38 52 3 -3 0 -11 -6 -17z
m668 -29 c0 -46 -18 -42 -22 5 -2 35 0 42 9 34 7 -6 13 -23 13 -39z m89 44 c0
-5 -4 -17 -9 -28 -8 -18 -9 -17 -9 8 -1 15 4 27 9 27 6 0 10 -3 9 -7z m-717
-44 c-3 -20 -8 -27 -14 -21 -11 11 -2 52 11 52 4 0 6 -14 3 -31z m598 -21 c0
-51 -5 -47 -14 10 -4 29 -3 41 4 37 5 -3 10 -25 10 -47z m-510 18 c-6 -8 -19
-12 -27 -9 -14 6 -14 8 3 14 30 12 37 10 24 -5z m479 -17 c14 -40 14 -59 1
-59 -5 0 -10 12 -10 26 0 14 -5 34 -10 45 -6 11 -7 19 -1 19 5 0 14 -14 20
-31z m-21 -49 c-2 -55 -13 -67 -20 -21 -3 18 0 28 5 24 6 -4 8 6 4 26 -4 19
-3 30 3 26 5 -3 8 -28 8 -55z m-108 13 c0 -32 -5 -28 -14 10 -4 19 -3 26 4 22
5 -3 10 -18 10 -32z m-419 3 c5 3 9 0 9 -5 0 -6 -7 -11 -15 -11 -8 0 -15 8
-14 18 0 10 3 12 6 4 2 -6 9 -10 14 -6z m489 -45 c0 -34 -16 -15 -24 29 -5 32
-5 34 9 16 8 -11 15 -31 15 -45z m177 37 c-3 -8 -6 -5 -6 6 -1 11 2 17 5 13 3
-3 4 -12 1 -19z m-572 2 c11 9 12 7 8 -10 -7 -25 -15 -31 -31 -21 -8 5 -10 15
-6 26 5 12 9 14 12 7 3 -10 7 -10 17 -2z m-162 -65 l5 -50 -24 28 c-13 16 -24
38 -24 50 0 18 2 19 10 7 8 -12 11 -11 17 10 8 28 10 23 16 -45z m521 49 c8
-21 8 -24 -3 -24 -5 0 -11 9 -14 20 -6 24 8 27 17 4z m193 -6 c-3 -8 -6 -5 -6
6 -1 11 2 17 5 13 3 -3 4 -12 1 -19z m-519 -17 c-8 -12 -18 -18 -21 -14 -4 3
0 15 10 25 21 24 29 15 11 -11z m502 15 c0 -3 -4 -8 -10 -11 -5 -3 -10 -1 -10
4 0 6 5 11 10 11 6 0 10 -2 10 -4z m-590 -91 c-1 -25 -4 -21 -20 25 -24 69
-24 72 0 35 11 -16 20 -43 20 -60z m557 63 c-3 -8 -6 -5 -6 6 -1 11 2 17 5 13
3 -3 4 -12 1 -19z m-586 -45 c9 -28 9 -37 -2 -44 -15 -9 -39 7 -39 25 0 6 7 2
15 -8 10 -13 15 -15 15 -6 0 7 -7 22 -17 32 -12 14 -13 18 -3 18 11 0 11 3 2
12 -17 17 -15 33 2 18 8 -6 20 -28 27 -47z m147 37 c-7 -11 -15 -15 -17 -9 -2
6 3 15 10 20 20 12 21 11 7 -11z m202 0 c0 -11 -2 -20 -4 -20 -2 0 -6 9 -9 20
-3 11 -1 20 4 20 5 0 9 -9 9 -20z m30 -1 c0 -5 -4 -9 -10 -9 -5 0 -10 7 -10
16 0 8 5 12 10 9 6 -3 10 -10 10 -16z m17 -21 c-3 -7 -5 -2 -5 12 0 14 2 19 5
13 2 -7 2 -19 0 -25z m-347 -30 c0 -28 -2 -49 -4 -47 -8 9 -13 99 -5 99 5 0 9
-23 9 -52z m380 20 c0 -5 -4 -8 -10 -8 -5 0 -10 10 -10 23 0 18 2 19 10 7 5
-8 10 -18 10 -22z m-233 7 c0 -8 -3 -13 -5 -10 -3 3 -11 0 -19 -6 -16 -14 -17
3 -1 19 16 16 25 15 25 -3z m333 -25 l-8 -35 -1 31 c-1 17 2 34 6 37 11 12 12
3 3 -33z m25 0 c-4 -12 -9 -19 -12 -17 -3 3 -2 15 2 27 4 12 9 19 12 17 3 -3
2 -15 -2 -27z m-215 -21 c0 -33 -18 -29 -22 6 -3 27 -1 32 9 23 7 -6 13 -19
13 -29z m124 17 c3 -13 8 -32 11 -43 3 -10 -1 -4 -9 12 -8 17 -15 24 -16 18 0
-7 -4 -13 -9 -13 -4 0 -6 11 -3 25 6 32 18 32 26 1z m113 2 c-3 -8 -6 -5 -6 6
-1 11 2 17 5 13 3 -3 4 -12 1 -19z m-496 -3 c6 15 8 9 8 -23 1 -39 -1 -42 -14
-28 -8 8 -14 27 -14 43 1 21 3 23 7 8 l5 -20 8 20z m32 -15 c-4 -25 -3 -29 10
-24 12 4 14 1 10 -15 -4 -17 -7 -18 -19 -6 -15 14 -19 57 -7 68 11 12 13 8 6
-23z m73 -12 c-11 -15 -16 -18 -16 -7 0 16 21 42 28 34 2 -2 -3 -14 -12 -27z
m184 28 c0 -3 -4 -8 -10 -11 -5 -3 -10 -1 -10 4 0 6 5 11 10 11 6 0 10 -2 10
-4z m139 -51 c0 -5 -6 -1 -14 9 -8 11 -15 27 -15 35 1 17 29 -26 29 -44z m-62
-27 c-3 -8 -6 -5 -6 6 -1 11 2 17 5 13 3 -3 4 -12 1 -19z m-255 -10 c-7 -7
-12 -8 -12 -2 0 14 12 26 19 19 2 -3 -1 -11 -7 -17z m186 -10 c-31 -47 -88
-109 -88 -96 0 16 90 131 98 124 2 -3 -2 -16 -10 -28z m-211 0 c-3 -8 -6 -5
-6 6 -1 11 2 17 5 13 3 -3 4 -12 1 -19z m44 -5 c-12 -20 -14 -14 -5 12 4 9 9
14 11 11 3 -2 0 -13 -6 -23z m83 -119 c19 -18 21 -65 4 -82 -31 -31 -98 -3
-98 40 0 49 61 76 94 42z m-70 -116 c-4 -7 -26 -36 -48 -65 -38 -49 -56 -63
-56 -45 0 12 91 122 101 122 6 0 7 -6 3 -12z m-54 -6 c0 -5 -16 -29 -36 -55
-20 -25 -33 -51 -29 -56 14 -24 46 -9 82 39 34 45 53 61 53 44 0 -4 -21 -31
-46 -60 -45 -54 -69 -65 -92 -42 -19 19 -14 40 23 91 35 46 45 55 45 39z m199
-37 c133 -32 272 -136 333 -251 85 -158 77 -360 -20 -510 -188 -290 -613 -308
-825 -35 -72 94 -107 194 -107 311 0 137 47 247 150 350 63 62 167 126 192
118 7 -3 -17 -18 -53 -35 -36 -16 -82 -45 -104 -64 -63 -55 -166 -206 -108
-158 14 12 16 12 11 -1 -2 -8 -11 -15 -19 -15 -47 0 -71 -235 -35 -342 11 -31
23 -50 29 -46 6 3 7 1 3 -6 -12 -18 42 -100 102 -159 193 -184 516 -175 697
19 174 188 178 470 10 657 -52 58 -139 117 -156 106 -7 -4 -9 -3 -6 3 10 16
-72 44 -145 50 -38 3 -68 10 -68 14 0 13 47 11 119 -6z m-99 -50 c0 -46 23
-223 30 -235 4 -7 19 -12 34 -12 22 0 24 -3 15 -21 -7 -12 -8 -38 -4 -66 12
-74 10 -124 -6 -156 -15 -30 -17 -31 -76 -23 -17 2 -17 15 -1 20 10 4 9 9 -3
20 -28 29 -44 209 -30 346 7 64 14 125 17 135 8 26 24 21 24 -8z m38 17 c14
12 14 10 3 -11 -10 -19 -15 -21 -22 -10 -5 8 -8 19 -8 24 0 6 3 4 6 -3 4 -10
8 -10 21 0z m54 -16 c6 4 9 1 7 -5 -8 -22 -24 -16 -26 9 -1 15 0 18 3 7 3 -9
10 -14 16 -11z m-41 -29 c-8 -8 -11 -7 -11 4 0 20 13 34 18 19 3 -7 -1 -17 -7
-23z m-246 14 c3 -5 1 -12 -5 -16 -5 -3 -10 1 -10 9 0 18 6 21 15 7z m335 -50
c0 -14 -4 -33 -9 -40 -7 -10 -8 0 -5 30 2 24 1 38 -2 32 -9 -21 -23 -15 -17 7
8 29 33 6 33 -29z m31 14 c5 4 9 2 9 -3 0 -6 8 -9 17 -8 11 1 21 -12 29 -43 8
-24 19 -49 25 -57 8 -10 8 -14 1 -14 -14 0 -29 28 -42 77 -9 37 -10 36 -5 -12
3 -35 2 -45 -5 -35 -5 8 -10 29 -11 45 0 26 -2 27 -9 10 -6 -14 -9 -15 -10 -5
-1 10 -4 9 -10 -5 -6 -15 -8 -6 -8 30 0 28 2 42 5 32 2 -9 9 -15 14 -12z
m-391 -17 c0 -16 3 -18 13 -9 11 8 13 5 9 -20 -4 -25 -15 -32 -18 -11 0 4 -6
18 -12 32 l-11 25 -1 -25 c-1 -23 -2 -23 -10 -5 -12 29 -12 31 10 32 14 1 20
-4 20 -19z m142 -13 c4 -39 -7 -49 -14 -12 -4 21 0 47 7 47 1 0 5 -16 7 -35z
m138 0 c-7 -9 -15 -13 -18 -10 -3 2 1 11 8 20 7 9 15 13 18 10 3 -2 -1 -11 -8
-20z m214 9 c10 -26 6 -30 -9 -10 -18 24 -20 13 -3 -17 6 -12 13 -33 14 -46 3
-22 1 -23 -12 -9 -21 21 -35 86 -20 92 19 8 24 6 30 -10z m-561 -55 c-5 -5 -7
7 -4 29 5 34 6 35 9 8 2 -16 0 -32 -5 -37z m-24 7 c-9 -8 -10 -7 -5 7 3 10 7
24 7 30 1 7 3 4 6 -7 3 -10 -1 -23 -8 -30z m-22 12 c-3 -8 -6 -5 -6 6 -1 11 2
17 5 13 3 -3 4 -12 1 -19z m410 -13 c-4 -8 -11 -15 -17 -15 -6 0 -6 7 2 20 14
22 24 19 15 -5z m-250 -17 c-3 -7 -5 -2 -5 12 0 14 2 19 5 13 2 -7 2 -19 0
-25z m515 15 c11 -10 17 -28 17 -47 -2 -27 -2 -28 -6 -6 l-5 25 -13 -30 c-12
-30 -12 -30 -16 23 -2 28 -2 52 0 52 3 0 13 -7 23 -17z m-692 -3 c0 -5 -4 -10
-10 -10 -5 0 -10 5 -10 10 0 6 5 10 10 10 6 0 10 -4 10 -10z m197 -12 c-3 -8
-6 -5 -6 6 -1 11 2 17 5 13 3 -3 4 -12 1 -19z m56 -8 c3 -11 1 -20 -4 -20 -5
0 -9 9 -9 20 0 11 2 20 4 20 2 0 6 -9 9 -20z m-26 -12 c-3 -8 -6 -5 -6 6 -1
11 2 17 5 13 3 -3 4 -12 1 -19z m225 0 c-7 -7 -12 -8 -12 -2 0 6 3 14 7 17 3
4 9 5 12 2 2 -3 -1 -11 -7 -17z m-362 0 c0 -7 3 -24 6 -38 4 -20 3 -22 -5 -10
-9 13 -11 12 -11 -3 0 -10 5 -28 12 -40 11 -21 10 -21 -7 -7 -17 14 -18 13
-12 -2 3 -10 2 -18 -3 -18 -14 0 -31 73 -20 84 7 7 10 0 11 -19 1 -30 1 -30 9
-5 4 14 5 35 3 48 -3 12 0 22 6 22 6 0 11 -6 11 -12z m400 -19 c-15 -28 -30
-23 -17 5 7 13 15 22 19 20 5 -3 3 -14 -2 -25z m-470 17 c0 -3 -4 -8 -10 -11
-5 -3 -10 -1 -10 4 0 6 5 11 10 11 6 0 10 -2 10 -4z m117 -37 c9 -34 9 -39 -2
-28 -17 17 -30 69 -18 69 5 0 14 -18 20 -41z m-155 9 c-7 -7 -12 -8 -12 -2 0
14 12 26 19 19 2 -3 -1 -11 -7 -17z m181 -18 c-7 -8 -22 24 -16 34 4 5 10 1
13 -10 4 -10 6 -21 3 -24z m369 21 c7 11 8 10 6 -5 -2 -11 -11 -20 -20 -22
-20 -2 -22 5 -11 33 7 17 8 17 11 -1 3 -15 6 -16 14 -5z m-580 -26 c-6 -12
-11 -14 -16 -6 -4 6 -2 11 4 11 7 0 9 7 5 18 -5 13 -3 14 5 5 8 -7 9 -17 2
-28z m252 13 c-5 -7 -7 -24 -6 -38 1 -23 1 -23 -7 -5 -13 27 -13 58 -1 50 6
-3 10 -1 10 6 0 7 3 10 6 6 3 -3 2 -12 -2 -19z m546 1 c0 -5 -4 -9 -10 -9 -5
0 -10 7 -10 16 0 8 5 12 10 9 6 -3 10 -10 10 -16z m-127 -19 c3 -11 1 -18 -4
-14 -5 3 -9 12 -9 20 0 20 7 17 13 -6z m-586 -43 c2 -30 0 -38 -7 -27 -11 18
-13 70 -2 70 4 0 8 -19 9 -43z m-25 -19 c2 -21 1 -38 -3 -38 -13 0 -21 40 -14
68 8 30 12 24 17 -30z m262 -60 c2 -55 8 -82 24 -108 30 -49 28 -66 -9 -74
-17 -3 -34 -4 -38 -1 -4 2 -13 28 -20 57 -11 45 -11 62 2 103 8 28 13 70 11
95 -4 44 -3 44 12 23 11 -15 17 -47 18 -95z m484 72 c22 -33 31 -87 12 -75 -5
3 -10 14 -10 24 0 11 -9 29 -20 42 -19 23 -19 23 -20 3 0 -11 -7 -29 -16 -40
-15 -19 -16 -19 -9 1 4 11 9 35 12 53 7 39 20 37 51 -8z m-473 20 c3 -5 1 -10
-4 -10 -6 0 -11 5 -11 10 0 6 2 10 4 10 3 0 8 -4 11 -10z m-300 -48 c3 -12 2
-28 -2 -35 -5 -8 -10 -1 -14 18 -7 30 -7 30 -8 3 0 -15 -5 -29 -10 -32 -5 -4
-7 3 -4 14 3 11 1 20 -4 20 -7 0 -9 40 -4 58 4 10 41 -27 46 -46z m580 28 c-6
-10 -45 -20 -45 -11 0 4 5 12 11 18 12 12 42 6 34 -7z m73 -2 c-2 -12 -8 -23
-14 -25 -7 -2 -10 6 -7 22 6 30 26 34 21 3z m52 3 c0 -21 -29 -56 -38 -46 -3
3 0 11 6 17 7 7 12 20 12 30 0 10 5 18 10 18 6 0 10 -9 10 -19z m-773 -43 c-3
-7 -5 -2 -5 12 0 14 2 19 5 13 2 -7 2 -19 0 -25z m881 -19 c-3 -20 -5 -19 -9
9 -3 20 -2 29 4 23 5 -5 7 -19 5 -32z m-48 -2 c0 -12 -5 -29 -10 -37 -6 -10
-9 -3 -7 27 1 42 17 51 17 10z m-611 -21 c9 -11 6 -13 -14 -13 -20 0 -23 2
-14 13 6 8 13 14 14 14 1 0 8 -6 14 -14z m581 5 c0 -6 -4 -13 -10 -16 -5 -3
-10 1 -10 9 0 9 5 16 10 16 6 0 10 -4 10 -9z m-133 -27 c2 -7 -6 -11 -22 -10
-25 1 -31 7 -18 20 10 10 36 3 40 -10z m-429 -25 c25 1 43 -1 40 -5 -4 -3 -46
-7 -95 -9 -50 -2 -89 -8 -91 -14 -4 -13 -40 -13 -67 0 -16 7 -13 8 14 4 26 -4
32 -2 28 10 -5 11 1 13 28 10 19 -3 44 -1 57 4 13 5 27 6 32 3 5 -3 30 -4 54
-3z m-223 -9 c-25 -11 -65 -12 -65 -2 0 4 19 8 43 9 31 1 37 -1 22 -7z m818
-12 c36 0 53 -4 45 -9 -7 -5 -49 -7 -93 -5 -44 3 -68 2 -52 -1 37 -6 35 -21
-3 -15 -18 2 -40 -2 -55 -12 -13 -9 -35 -16 -49 -16 -14 0 -37 -5 -52 -10 -16
-6 -31 -7 -36 -2 -8 8 4 11 98 26 12 2 32 11 45 20 l24 17 -25 -1 c-14 -1 -52
-1 -85 0 -55 3 -57 3 -20 9 22 3 76 5 120 3 44 -1 106 -3 138 -4z m-573 -9 c0
-13 -51 -19 -70 -9 -15 8 -27 7 -49 -4 -44 -23 -108 -31 -126 -16 -9 7 -18 10
-22 6 -3 -3 -1 -6 5 -6 7 0 12 -5 12 -10 0 -6 -12 -8 -27 -4 -55 11 -56 13
-43 30 13 15 63 12 85 -7 11 -8 86 5 114 20 17 10 121 9 121 0z m380 -17 c0
-4 -20 -8 -45 -10 -25 -1 -45 1 -45 5 0 4 20 9 45 10 25 1 45 -2 45 -5z m-368
-26 c6 4 8 3 4 -4 -3 -6 3 -12 16 -15 13 -2 4 -5 -20 -6 -23 0 -52 5 -63 12
-18 10 -23 9 -27 -2 -4 -11 -6 -11 -13 0 -6 11 -11 11 -21 1 -6 -6 -20 -12
-29 -12 -10 0 -24 -9 -31 -19 -8 -11 -26 -22 -41 -25 -34 -6 -97 4 -97 15 0
12 47 12 54 0 10 -15 57 1 73 25 9 14 25 24 39 24 12 0 25 4 28 9 3 4 30 4 61
-1 31 -5 61 -5 67 -2z m584 -42 c-46 -40 -87 -44 -141 -14 -19 11 -51 22 -71
24 -54 7 -54 17 0 15 26 -1 49 -6 52 -10 3 -5 19 -15 37 -24 46 -21 92 -10
131 34 11 12 22 18 25 15 3 -3 -12 -21 -33 -40z m-536 -24 c12 -8 11 -10 -7
-10 -13 0 -23 5 -23 10 0 13 11 13 30 0z m147 -52 c15 -32 8 -58 -16 -59 -14
-1 -14 -2 2 -6 9 -2 17 -10 17 -16 0 -7 7 -3 16 8 16 21 11 88 -8 113 -6 6 -9
12 -7 13 2 0 19 2 37 3 34 4 45 -10 12 -16 -19 -3 -19 -3 1 -44 l21 -41 -20
-47 c-25 -56 -55 -70 -132 -62 -65 7 -84 24 -102 89 l-12 48 37 34 c21 19 46
35 55 35 16 -1 16 -1 1 -10 -24 -14 -60 -78 -48 -85 5 -4 9 -17 9 -31 0 -13 5
-24 10 -24 6 0 10 4 10 8 0 5 10 14 23 20 l22 12 -25 -3 c-22 -2 -25 1 -23 32
1 36 45 87 63 76 6 -3 10 -1 10 6 0 17 32 -19 47 -53z m-267 11 c0 -3 -11 -4
-25 -1 -29 5 -30 8 -13 26 11 11 15 11 25 -3 7 -9 13 -19 13 -22z m-108 -31
c-27 -11 -30 -9 -25 11 4 17 8 18 24 8 18 -11 18 -12 1 -19z m718 12 c0 -4
-11 -7 -25 -7 -20 0 -23 2 -14 13 10 13 39 9 39 -6z m-777 -14 c4 -10 0 -14
-14 -13 -22 1 -25 13 -6 20 6 3 13 6 13 6 1 1 4 -5 7 -13z m97 -65 c0 -3 -5 0
-11 6 -6 6 -17 9 -24 6 -10 -3 -12 2 -8 16 l5 21 19 -21 c11 -12 19 -25 19
-28z m485 29 c3 -5 4 -10 1 -10 -2 0 -12 -3 -20 -6 -12 -5 -15 -2 -10 10 7 18
20 21 29 6z m-415 -32 c0 -3 -9 -4 -20 -1 -16 4 -18 8 -9 20 10 11 14 11 20 1
5 -7 9 -16 9 -20z m461 -21 c-13 -13 -26 -3 -16 12 3 6 11 8 17 5 6 -4 6 -10
-1 -17z m-593 -15 c2 -7 -2 -10 -12 -6 -9 3 -16 11 -16 16 0 13 23 5 28 -10z
m672 -3 c0 -5 -9 -9 -20 -9 -17 0 -19 2 -8 14 13 14 28 12 28 -5z m-455 -9 c3
-11 9 -19 13 -18 4 1 19 -2 34 -6 24 -7 26 -10 16 -32 -15 -33 -55 -57 -106
-64 -32 -5 -45 -4 -49 7 -7 18 24 63 43 63 12 0 15 6 11 22 -10 39 26 65 38
28z m285 -12 c3 -14 17 -36 33 -48 32 -25 39 -75 10 -66 -10 3 -31 7 -47 10
-35 6 -72 30 -85 55 -15 26 -1 34 23 14 12 -10 16 -12 10 -4 -9 10 -8 20 5 42
19 35 44 34 51 -3z m-425 2 c3 -5 -1 -10 -9 -10 -9 0 -16 5 -16 10 0 6 4 10 9
10 6 0 13 -4 16 -10z m293 -32 c7 -7 12 -21 12 -33 0 -12 5 -26 11 -32 9 -9 3
-14 -22 -20 -23 -6 -34 -15 -34 -28 0 -21 -42 -29 -62 -13 -15 12 -18 58 -4
58 5 0 7 -8 4 -18 -2 -10 3 -25 13 -33 10 -8 15 -9 11 -2 -4 6 -3 14 3 18 5 3
10 1 10 -6 0 -7 3 -9 7 -6 3 4 -3 16 -15 27 -23 22 -29 40 -12 40 6 0 10 11
10 24 0 34 43 49 68 24z m18 -109 c3 -6 0 -15 -7 -20 -24 -15 -37 -10 -32 11
6 22 28 27 39 9z"/>
<path d="M1155 2120 c3 -5 8 -10 11 -10 2 0 4 5 4 10 0 6 -5 10 -11 10 -5 0
-7 -4 -4 -10z"/>
<path d="M1180 2119 c0 -5 5 -7 10 -4 6 3 10 8 10 11 0 2 -4 4 -10 4 -5 0 -10
-5 -10 -11z"/>
<path d="M1155 2090 c3 -5 8 -10 11 -10 2 0 4 5 4 10 0 6 -5 10 -11 10 -5 0
-7 -4 -4 -10z"/>
<path d="M1625 2340 c-3 -5 -1 -10 4 -10 6 0 11 5 11 10 0 6 -2 10 -4 10 -3 0
-8 -4 -11 -10z"/>
<path d="M1147 1753 c-14 -13 -6 -53 12 -63 37 -19 70 16 49 54 -9 16 -49 22
-61 9z m51 -26 c4 -21 -25 -34 -40 -19 -8 8 -8 16 2 27 16 19 34 15 38 -8z"/>
<path d="M1180 1360 c0 -5 5 -10 11 -10 5 0 7 5 4 10 -3 6 -8 10 -11 10 -2 0
-4 -4 -4 -10z"/>
<path d="M1180 1331 c0 -5 5 -13 10 -16 6 -3 10 -2 10 4 0 5 -4 13 -10 16 -5
3 -10 2 -10 -4z"/>
<path d="M1155 1290 c3 -5 8 -10 11 -10 2 0 4 5 4 10 0 6 -5 10 -11 10 -5 0
-7 -4 -4 -10z"/>
<path d="M1180 1289 c0 -5 5 -7 10 -4 6 3 10 8 10 11 0 2 -4 4 -10 4 -5 0 -10
-5 -10 -11z"/>
<path d="M1202 1217 c-7 -46 -12 -94 -12 -107 0 -23 1 -23 17 -8 10 11 20 49
27 107 10 81 10 91 -4 91 -12 0 -19 -19 -28 -83z"/>
<path d="M710 1110 c0 -5 5 -10 10 -10 6 0 10 5 10 10 0 6 -4 10 -10 10 -5 0
-10 -4 -10 -10z"/>
<path d="M681 1982 c-51 -101 -64 -162 -59 -281 4 -80 10 -120 28 -166 13 -33
26 -53 27 -44 2 9 69 45 168 89 91 40 164 75 162 77 -2 2 -81 -23 -176 -55
-94 -33 -174 -55 -177 -51 -6 11 9 17 176 69 237 73 236 75 -10 25 -159 -32
-194 -36 -177 -19 6 6 39 12 252 50 55 9 103 20 107 23 7 6 -110 0 -284 -14
-63 -6 -88 -4 -88 4 0 6 10 11 23 12 12 1 38 2 57 4 19 1 102 6 185 9 160 8
203 16 89 17 -38 0 -80 2 -94 4 -14 1 -78 6 -142 10 -65 4 -118 11 -118 16 0
12 13 11 215 -6 94 -8 177 -14 185 -14 8 0 -73 19 -180 41 -107 21 -199 43
-204 49 -17 16 23 10 203 -31 96 -22 177 -38 179 -35 2 2 -13 8 -34 14 -105
29 -335 110 -334 117 2 13 15 9 198 -57 91 -32 167 -58 168 -56 2 2 -75 39
-171 82 -96 44 -175 85 -175 92 0 12 70 -18 181 -77 54 -29 59 -24 8 8 -24 16
-70 56 -101 91 l-57 62 -30 -59z m59 13 c19 -23 8 -26 -20 -5 -19 15 -21 20
-9 20 9 0 22 -7 29 -15z"/>
<path d="M1005 1811 c46 -22 55 -24 55 -12 0 5 -12 11 -27 14 -16 3 -37 8 -48
12 -11 3 -2 -3 20 -14z"/>
<path d="M1300 1670 c8 -5 20 -10 25 -10 6 0 3 5 -5 10 -8 5 -19 10 -25 10 -5
0 -3 -5 5 -10z"/>
<path d="M1020 1644 l-25 -15 25 7 c28 7 35 12 29 18 -2 2 -15 -2 -29 -10z"/>
<path d="M291 1312 c6 -10 25 -24 41 -31 65 -29 84 -111 36 -151 -57 -47 -146
3 -108 60 9 13 12 13 21 -2 13 -24 36 -23 49 2 9 16 6 22 -15 36 -21 14 -31
15 -51 6 -55 -26 -56 -98 -1 -133 73 -46 167 8 167 96 0 71 -59 135 -125 135
-22 0 -24 -2 -14 -18z"/>
<path d="M225 1313 c-25 -6 -70 -48 -96 -89 -23 -38 -38 -113 -28 -139 4 -11
8 -15 8 -8 1 19 31 43 53 43 20 0 20 -1 3 -26 -19 -29 -22 -130 -4 -119 4 3 9
-1 12 -8 3 -7 26 -24 51 -38 43 -22 48 -22 57 -7 5 9 27 39 50 68 43 54 45 70
9 50 -11 -6 -26 -9 -33 -7 -7 3 1 10 17 16 16 7 35 10 43 7 7 -3 18 5 24 17
11 20 11 21 -5 8 -22 -19 -96 -20 -129 -2 -33 17 -60 72 -51 105 10 40 41 66
79 66 40 0 65 -22 65 -56 0 -31 -42 -53 -65 -34 -12 10 -15 10 -15 -3 0 -31
68 -37 93 -9 24 26 21 65 -8 96 -23 25 -35 30 -62 27 -7 -1 -13 7 -13 17 0 16
-24 37 -33 31 -1 -1 -11 -3 -22 -6z m45 -23 c0 -5 -6 -10 -14 -10 -28 0 -76
-52 -93 -101 -19 -52 -38 -68 -27 -21 14 57 48 102 99 130 25 14 35 15 35 2z
m23 -264 c7 -21 4 -32 -19 -59 l-27 -32 6 37 c5 36 5 37 -19 27 -27 -10 -64 3
-64 22 0 6 4 8 9 5 5 -3 23 -3 40 0 31 6 31 7 11 21 -32 23 -23 32 17 18 25
-9 40 -21 46 -39z"/>
<path d="M260 2420 c-6 -11 -8 -20 -6 -20 3 0 10 9 16 20 6 11 8 20 6 20 -3 0
-10 -9 -16 -20z"/>
<path d="M225 1827 c-70 -38 -135 -87 -135 -103 0 -31 181 -134 236 -134 59 0
103 33 104 77 0 23 -26 43 -47 36 -7 -3 -13 -12 -13 -21 0 -13 2 -13 14 3 13
18 14 18 24 -2 9 -17 8 -26 -9 -47 -17 -21 -29 -26 -66 -26 -52 0 -134 37
-191 86 l-36 31 29 26 c53 47 145 90 193 91 36 1 48 -4 67 -27 14 -15 22 -34
19 -42 -7 -17 -30 -20 -37 -5 -3 6 -4 5 -3 -2 2 -7 14 -13 27 -13 35 0 38 43
5 78 -36 39 -101 37 -181 -6z"/>
<path d="M1963 1848 c-31 -15 -48 -60 -33 -88 7 -13 17 -19 27 -16 8 3 17 6
19 6 2 0 4 8 4 18 -1 16 -1 16 -11 -1 -6 -9 -14 -15 -20 -12 -17 11 -9 54 13
69 52 37 160 6 244 -69 l39 -35 -25 -20 c-14 -11 -51 -36 -83 -56 -95 -59
-197 -47 -197 23 0 27 26 32 33 6 4 -17 5 -17 6 0 1 23 -25 33 -44 17 -22 -18
-18 -43 10 -74 47 -51 148 -28 268 62 26 20 47 41 47 47 0 16 -65 64 -137 101
-67 35 -118 42 -160 22z"/>
<path d="M2080 1030 c-6 -11 -8 -20 -6 -20 3 0 10 9 16 20 6 11 8 20 6 20 -3
0 -10 -9 -16 -20z"/>
<path d="M368 475 c-21 -12 -40 -24 -44 -27 -12 -12 65 10 85 24 36 25 1 27
-41 3z"/>
<path d="M464 466 l29 -13 -33 -24 c-18 -13 -37 -23 -44 -21 -7 2 -7 0 1 -9 9
-9 9 -18 1 -33 -10 -20 -9 -19 15 2 18 17 34 23 58 20 30 -3 35 -8 54 -55 21
-55 35 -68 35 -33 0 12 7 34 15 50 14 28 14 29 -20 49 -20 11 -37 16 -40 10
-4 -5 2 -9 11 -9 14 0 15 -3 6 -12 -19 -19 -40 7 -25 31 10 16 9 22 -10 34
-12 7 -35 17 -52 20 l-30 6 29 -13z m111 -103 c-2 -10 -4 -22 -5 -28 0 -5 -5
-2 -11 8 -10 17 -5 37 11 37 4 0 7 -8 5 -17z"/>
<path d="M1053 430 c-12 -5 -29 -23 -38 -41 -31 -58 10 -163 96 -248 29 -28
58 -51 64 -51 24 0 116 101 140 152 48 102 42 155 -20 185 -28 13 -39 14 -60
5 -14 -6 -25 -20 -25 -30 0 -29 12 -34 27 -12 20 29 50 25 68 -10 21 -40 19
-66 -9 -125 -21 -46 -103 -135 -124 -135 -16 0 -100 96 -122 140 -36 70 -16
150 36 150 22 0 29 -10 25 -33 -1 -5 4 -7 11 -5 21 7 22 40 2 55 -20 15 -39
16 -71 3z"/>
<path d="M1537 135 c3 -8 9 -12 14 -9 12 7 11 11 -5 17 -10 4 -13 1 -9 -8z"/>
<path d="M228 433 c6 -2 18 -2 25 0 6 3 1 5 -13 5 -14 0 -19 -2 -12 -5z"/>
<path d="M130 212 c0 -13 30 -52 41 -52 13 0 11 34 -3 48 -13 13 -38 16 -38 4z"/>
<path d="M89 187 c-25 -54 25 -105 83 -85 32 11 27 30 -5 27 -33 -2 -44 2 -25
9 15 6 13 11 -12 42 l-28 35 -13 -28z"/>
<path d="M234 141 c-14 -14 2 -21 47 -21 27 0 48 4 45 9 -6 9 -84 20 -92 12z"/>
<path d="M2185 410 c-4 -6 3 -10 14 -10 25 0 27 6 6 13 -8 4 -17 2 -20 -3z"/>
<path d="M2198 212 c-20 -4 -34 -40 -20 -54 6 -6 15 1 26 17 20 30 18 42 -6
37z"/>
<path d="M2220 169 c-19 -26 -20 -33 -9 -41 11 -7 9 -9 -7 -5 -12 2 -28 1 -35
-4 -12 -8 -11 -11 1 -19 24 -16 58 -12 80 10 23 23 26 62 6 79 -11 9 -19 6
-36 -20z"/>
<path d="M2053 133 c-54 -7 -38 -24 20 -21 28 2 52 8 52 13 0 11 -25 14 -72 8z"/>
<path d="M915 310 c-3 -5 -1 -10 4 -10 6 0 11 5 11 10 0 6 -2 10 -4 10 -3 0
-8 -4 -11 -10z"/>
<path d="M1420 308 c0 -6 -8 -21 -17 -32 -13 -16 -11 -15 9 3 15 13 25 28 22
32 -7 13 -14 11 -14 -3z"/>
<path d="M1361 114 c-11 -13 -11 -18 -1 -24 19 -12 40 -1 40 21 0 23 -20 24
-39 3z"/>
<path d="M2100 245 c0 -8 5 -15 10 -15 6 0 10 7 10 15 0 8 -4 15 -10 15 -5 0
-10 -7 -10 -15z"/>
<path d="M1790 176 c0 -2 7 -7 16 -10 8 -3 12 -2 9 4 -6 10 -25 14 -25 6z"/>
</g>
</svg>
